<?xml version="1.0" encoding="UTF-8" standalone="no"?>
<!DOCTYPE svg PUBLIC "-//W3C//DTD SVG 1.0//EN" "http://www.w3.org/TR/2001/PR-SVG-20010719/DTD/svg10.dtd">
<svg width="8cm" height="34cm" viewBox="82 30 150 672" xmlns="http://www.w3.org/2000/svg" xmlns:xlink="http://www.w3.org/1999/xlink">
  <g>
    <path style="fill: #ffffff" d="M 122.02 31.9 L 195.472,31.9 C 204.654,39.5001 207.592,43.3002 207.592,50.9003 C 207.592,58.5004 204.654,62.3005 195.472,69.9006 L 122.02,69.9006 C 112.838,62.3005 109.9,58.5004 109.9,50.9003 C 109.9,43.3002 112.838,39.5001 122.02,31.9z"/>
    <path style="fill: none; fill-opacity:0; stroke-width: 2; stroke: #000000" d="M 122.02 31.9 L 195.472,31.9 C 204.654,39.5001 207.592,43.3002 207.592,50.9003 C 207.592,58.5004 204.654,62.3005 195.472,69.9006 L 122.02,69.9006 C 112.838,62.3005 109.9,58.5004 109.9,50.9003 C 109.9,43.3002 112.838,39.5001 122.02,31.9"/>
    <text font-size="12.8" style="fill: #000000;text-anchor:middle;font-family:sans-serif;font-style:normal;font-weight:normal" x="158.746" y="54.9003">
      <tspan x="158.746" y="54.9003">Start</tspan>
    </text>
  </g>
  <g>
    <polygon style="fill: #ffffff" points="109.9,98.9 207.214,98.9 197.483,117.629 207.214,136.357 109.9,136.357 "/>
    <polygon style="fill: none; fill-opacity:0; stroke-width: 2; stroke: #000000" points="109.9,98.9 207.214,98.9 197.483,117.629 207.214,136.357 109.9,136.357 "/>
    <text font-size="12.8" style="fill: #000000;text-anchor:middle;font-family:sans-serif;font-style:normal;font-weight:normal" x="158.557" y="121.629">
      <tspan x="158.557" y="121.629">Hungry</tspan>
    </text>
  </g>
  <g>
    <path style="fill: none; fill-opacity:0; stroke-width: 2; stroke: #000000" d="M 158.746,69.9006 A 15.2563,15.2563 0 1 0 150.01,99.1194"/>
    <polygon style="fill: #000000" points="156.427,99.5814 148.427,107.391 149.284,101.867 145.379,97.8667 "/>
    <polygon style="fill: none; fill-opacity:0; stroke-width: 2; stroke: #000000" points="156.427,99.5814 148.427,107.391 149.284,101.867 145.379,97.8667 "/>
  </g>
  <g>
    <path style="fill: none; fill-opacity:0; stroke-width: 2; stroke: #000000" d="M 158.557,136.357 A 19.2854,19.2854 0 0 0 150.123,173.232"/>
    <polygon style="fill: #000000" points="156.666,175.003 146.907,180.457 149.174,175.347 146.447,170.467 "/>
    <polygon style="fill: none; fill-opacity:0; stroke-width: 2; stroke: #000000" points="156.666,175.003 146.907,180.457 149.174,175.347 146.447,170.467 "/>
  </g>
  <g>
    <path style="fill: #ffffff" d="M 104.896 241.9 L 212.596,241.9 C 226.058,249.5 230.366,253.3 230.366,260.9 C 230.366,268.5 226.058,272.3 212.596,279.901 L 104.896,279.901 C 91.4334,272.3 87.1254,268.5 87.1254,260.9 C 87.1254,253.3 91.4334,249.5 104.896,241.9z"/>
    <path style="fill: none; fill-opacity:0; stroke-width: 2; stroke: #000000" d="M 104.896 241.9 L 212.596,241.9 C 226.058,249.5 230.366,253.3 230.366,260.9 C 230.366,268.5 226.058,272.3 212.596,279.901 L 104.896,279.901 C 91.4334,272.3 87.1254,268.5 87.1254,260.9 C 87.1254,253.3 91.4334,249.5 104.896,241.9"/>
    <text font-size="12.8" style="fill: #000000;text-anchor:middle;font-family:sans-serif;font-style:normal;font-weight:normal" x="158.746" y="264.9">
      <tspan x="158.746" y="264.9">LookingForFood</tspan>
    </text>
  </g>
  <g>
    <path style="fill: none; fill-opacity:0; stroke-width: 2; stroke: #000000" d="M 158.9,213.084 A 15.19,15.19 0 1 0 150.209,242.172"/>
    <polygon style="fill: #000000" points="156.621,242.597 148.677,250.464 149.494,244.934 145.561,240.961 "/>
    <polygon style="fill: none; fill-opacity:0; stroke-width: 2; stroke: #000000" points="156.621,242.597 148.677,250.464 149.494,244.934 145.561,240.961 "/>
  </g>
  <g>
    <path style="fill: none; fill-opacity:0; stroke-width: 2; stroke: #000000" d="M 158.746,279.901 A 19.5255,19.5255 0 0 0 147.914,316.551"/>
    <polygon style="fill: #000000" points="154.322,318.807 144.168,323.487 146.826,318.569 144.486,313.492 "/>
    <polygon style="fill: none; fill-opacity:0; stroke-width: 2; stroke: #000000" points="154.322,318.807 144.168,323.487 146.826,318.569 144.486,313.492 "/>
  </g>
  <g>
    <path style="fill: #ffffff" d="M 103.771 384.9 L 201.721,384.9 C 213.965,392.5 217.883,396.3 217.883,403.9 C 217.883,411.5 213.965,415.3 201.721,422.901 L 103.771,422.901 C 91.5272,415.3 87.6092,411.5 87.6092,403.9 C 87.6092,396.3 91.5272,392.5 103.771,384.9z"/>
    <path style="fill: none; fill-opacity:0; stroke-width: 2; stroke: #000000" d="M 103.771 384.9 L 201.721,384.9 C 213.965,392.5 217.883,396.3 217.883,403.9 C 217.883,411.5 213.965,415.3 201.721,422.901 L 103.771,422.901 C 91.5272,415.3 87.6092,411.5 87.6092,403.9 C 87.6092,396.3 91.5272,392.5 103.771,384.9"/>
    <text font-size="12.8" style="fill: #000000;text-anchor:middle;font-family:sans-serif;font-style:normal;font-weight:normal" x="152.746" y="407.9">
      <tspan x="152.746" y="407.9">CheckingOut</tspan>
    </text>
  </g>
  <g>
    <path style="fill: none; fill-opacity:0; stroke-width: 2; stroke: #000000" d="M 156.557,356.879 A 14.9983,14.9983 0 1 0 144.258,384.193"/>
    <polygon style="fill: #000000" points="150.557,385.355 141.783,392.284 143.213,386.88 139.749,382.493 "/>
    <polygon style="fill: none; fill-opacity:0; stroke-width: 2; stroke: #000000" points="150.557,385.355 141.783,392.284 143.213,386.88 139.749,382.493 "/>
  </g>
  <g>
    <polygon style="fill: #ffffff" points="83.3382,456.9 229.776,456.9 215.132,475.629 229.776,494.357 83.3382,494.357 "/>
    <polygon style="fill: none; fill-opacity:0; stroke-width: 2; stroke: #000000" points="83.3382,456.9 229.776,456.9 215.132,475.629 229.776,494.357 83.3382,494.357 "/>
    <text font-size="12.8" style="fill: #000000;text-anchor:middle;font-family:sans-serif;font-style:normal;font-weight:normal" x="156.557" y="479.629">
      <tspan x="156.557" y="479.629">MoneyRequest</tspan>
    </text>
  </g>
  <g>
    <path style="fill: none; fill-opacity:0; stroke-width: 2; stroke: #000000" d="M 152.746,422.901 A 17.3155,17.3155 0 0 0 147.785,456.998"/>
    <polygon style="fill: #000000" points="154.4,457.491 146.076,464.954 147.167,459.471 143.435,455.309 "/>
    <polygon style="fill: none; fill-opacity:0; stroke-width: 2; stroke: #000000" points="154.4,457.491 146.076,464.954 147.167,459.471 143.435,455.309 "/>
  </g>
  <g>
    <path style="fill: #ffffff" d="M 111.062 662.9 L 209.012,662.9 C 221.255,670.5 225.173,674.3 225.173,681.9 C 225.173,689.5 221.255,693.3 209.012,700.901 L 111.062,700.901 C 98.818,693.3 94.9,689.5 94.9,681.9 C 94.9,674.3 98.818,670.5 111.062,662.9z"/>
    <path style="fill: none; fill-opacity:0; stroke-width: 2; stroke: #000000" d="M 111.062 662.9 L 209.012,662.9 C 221.255,670.5 225.173,674.3 225.173,681.9 C 225.173,689.5 221.255,693.3 209.012,700.901 L 111.062,700.901 C 98.818,693.3 94.9,689.5 94.9,681.9 C 94.9,674.3 98.818,670.5 111.062,662.9"/>
    <text font-size="12.8" style="fill: #000000;text-anchor:middle;font-family:sans-serif;font-style:normal;font-weight:normal" x="160.037" y="685.9">
      <tspan x="160.037" y="685.9">End</tspan>
    </text>
  </g>
  <g>
    <path style="fill: none; fill-opacity:0; stroke-width: 2; stroke: #000000" d="M 156.557,494.357 A 15.4374,15.4374 0 1 0 149.76,524.469"/>
    <polygon style="fill: #000000" points="156.213,524.587 148.61,532.785 149.192,527.225 145.093,523.424 "/>
    <polygon style="fill: none; fill-opacity:0; stroke-width: 2; stroke: #000000" points="156.213,524.587 148.61,532.785 149.192,527.225 145.093,523.424 "/>
  </g>
  <g>
    <path style="fill: none; fill-opacity:0; stroke-width: 2; stroke: #000000" d="M 158.306,561.984 A 14.9359,14.9359 0 1 0 153.967,591.49"/>
    <polygon style="fill: #000000" points="160.332,590.851 153.85,599.96 153.71,594.372 149.155,591.131 "/>
    <polygon style="fill: none; fill-opacity:0; stroke-width: 2; stroke: #000000" points="160.332,590.851 153.85,599.96 153.71,594.372 149.155,591.131 "/>
  </g>
  <g>
    <path style="fill: none; fill-opacity:0; stroke-width: 2; stroke: #000000" d="M 162.306,627.984 A 17.6515,17.6515 0 0 0 151.381,661.294"/>
    <polygon style="fill: #000000" points="157.806,663.053 148.172,668.726 150.324,663.567 147.487,658.75 "/>
    <polygon style="fill: none; fill-opacity:0; stroke-width: 2; stroke: #000000" points="157.806,663.053 148.172,668.726 150.324,663.567 147.487,658.75 "/>
  </g>
  <g>
    <polygon style="fill: #ffffff" points="111.088,174.9 197.15,174.9 206.713,193.992 197.15,213.084 111.088,213.084 "/>
    <polygon style="fill: none; fill-opacity:0; stroke-width: 2; stroke: #000000" points="111.088,174.9 197.15,174.9 206.713,193.992 197.15,213.084 111.088,213.084 "/>
    <text font-size="12.8" style="fill: #000000;text-anchor:middle;font-family:sans-serif;font-style:normal;font-weight:normal" x="158.9" y="189.992">
      <tspan x="158.9" y="189.992">StartCar();</tspan>
      <tspan x="158.9" y="205.992">DriveCar();</tspan>
    </text>
  </g>
  <g>
    <polygon style="fill: #ffffff" points="107.9,318.879 205.214,318.879 195.483,337.879 205.214,356.879 107.9,356.879 "/>
    <polygon style="fill: none; fill-opacity:0; stroke-width: 2; stroke: #000000" points="107.9,318.879 205.214,318.879 195.483,337.879 205.214,356.879 107.9,356.879 "/>
    <text font-size="12.8" style="fill: #000000;text-anchor:middle;font-family:sans-serif;font-style:normal;font-weight:normal" x="156.557" y="333.879">
      <tspan x="156.557" y="333.879">Food();</tspan>
      <tspan x="156.557" y="349.879">GetFood();</tspan>
    </text>
  </g>
  <g>
    <polygon style="fill: #ffffff" points="100.962,523.801 204.181,523.801 215.65,542.893 204.181,561.984 100.962,561.984 "/>
    <polygon style="fill: none; fill-opacity:0; stroke-width: 2; stroke: #000000" points="100.962,523.801 204.181,523.801 215.65,542.893 204.181,561.984 100.962,561.984 "/>
    <text font-size="12.8" style="fill: #000000;text-anchor:middle;font-family:sans-serif;font-style:normal;font-weight:normal" x="158.306" y="546.893">
      <tspan x="158.306" y="546.893">GiveMoney();</tspan>
    </text>
  </g>
  <g>
    <polygon style="fill: #ffffff" points="113.9,589.801 201.031,589.801 210.712,608.893 201.031,627.984 113.9,627.984 "/>
    <polygon style="fill: none; fill-opacity:0; stroke-width: 2; stroke: #000000" points="113.9,589.801 201.031,589.801 210.712,608.893 201.031,627.984 113.9,627.984 "/>
    <text font-size="12.8" style="fill: #000000;text-anchor:middle;font-family:sans-serif;font-style:normal;font-weight:normal" x="162.306" y="612.893">
      <tspan x="162.306" y="612.893">EatFood();</tspan>
    </text>
  </g>
</svg>
