<?xml version="1.0" encoding="UTF-8" standalone="no"?>
<!DOCTYPE svg PUBLIC "-//W3C//DTD SVG 1.0//EN" "http://www.w3.org/TR/2001/PR-SVG-20010719/DTD/svg10.dtd">
<svg width="8cm" height="38cm" viewBox="76 30 155 755" xmlns="http://www.w3.org/2000/svg" xmlns:xlink="http://www.w3.org/1999/xlink">
  <g>
    <path style="fill: #ffffff" d="M 122.02 31.9 L 195.472,31.9 C 204.654,39.5001 207.592,43.3002 207.592,50.9003 C 207.592,58.5004 204.654,62.3005 195.472,69.9006 L 122.02,69.9006 C 112.838,62.3005 109.9,58.5004 109.9,50.9003 C 109.9,43.3002 112.838,39.5001 122.02,31.9z"/>
    <path style="fill: none; fill-opacity:0; stroke-width: 2; stroke: #000000" d="M 122.02 31.9 L 195.472,31.9 C 204.654,39.5001 207.592,43.3002 207.592,50.9003 C 207.592,58.5004 204.654,62.3005 195.472,69.9006 L 122.02,69.9006 C 112.838,62.3005 109.9,58.5004 109.9,50.9003 C 109.9,43.3002 112.838,39.5001 122.02,31.9"/>
    <text font-size="12.8" style="fill: #000000;text-anchor:middle;font-family:sans-serif;font-style:normal;font-weight:normal" x="158.746" y="54.9003">
      <tspan x="158.746" y="54.9003">Start</tspan>
    </text>
  </g>
  <g>
    <polygon style="fill: #ffffff" points="108.9,92.9 206.214,92.9 196.483,111.629 206.214,130.357 108.9,130.357 "/>
    <polygon style="fill: none; fill-opacity:0; stroke-width: 2; stroke: #000000" points="108.9,92.9 206.214,92.9 196.483,111.629 206.214,130.357 108.9,130.357 "/>
    <text font-size="12.8" style="fill: #000000;text-anchor:middle;font-family:sans-serif;font-style:normal;font-weight:normal" x="157.557" y="115.629">
      <tspan x="157.557" y="115.629">Hungry</tspan>
    </text>
  </g>
  <g>
    <path style="fill: none; fill-opacity:0; stroke-width: 2; stroke: #000000" d="M 158.746,69.9006 A 13.3149,13.3149 0 1 0 149.393,94.2063"/>
    <polygon style="fill: #000000" points="155.568,93.9214 148.956,102.937 148.896,97.3471 144.388,94.0411 "/>
    <polygon style="fill: none; fill-opacity:0; stroke-width: 2; stroke: #000000" points="155.568,93.9214 148.956,102.937 148.896,97.3471 144.388,94.0411 "/>
  </g>
  <g>
    <path style="fill: none; fill-opacity:0; stroke-width: 2; stroke: #000000" d="M 157.557,130.357 A 15.2442,15.2442 0 1 0 150.187,159.924"/>
    <polygon style="fill: #000000" points="156.617,160.083 148.997,168.263 149.591,162.705 145.5,158.894 "/>
    <polygon style="fill: none; fill-opacity:0; stroke-width: 2; stroke: #000000" points="156.617,160.083 148.997,168.263 149.591,162.705 145.5,158.894 "/>
  </g>
  <g>
    <path style="fill: #ffffff" d="M 94.8959 277.9 L 202.596,277.9 C 216.058,285.5 220.366,289.3 220.366,296.9 C 220.366,304.5 216.058,308.3 202.596,315.901 L 94.8959,315.901 C 81.4334,308.3 77.1254,304.5 77.1254,296.9 C 77.1254,289.3 81.4334,285.5 94.8959,277.9z"/>
    <path style="fill: none; fill-opacity:0; stroke-width: 2; stroke: #000000" d="M 94.8959 277.9 L 202.596,277.9 C 216.058,285.5 220.366,289.3 220.366,296.9 C 220.366,304.5 216.058,308.3 202.596,315.901 L 94.8959,315.901 C 81.4334,308.3 77.1254,304.5 77.1254,296.9 C 77.1254,289.3 81.4334,285.5 94.8959,277.9"/>
    <text font-size="12.8" style="fill: #000000;text-anchor:middle;font-family:sans-serif;font-style:normal;font-weight:normal" x="148.746" y="300.9">
      <tspan x="148.746" y="300.9">LookingForFood</tspan>
    </text>
  </g>
  <g>
    <path style="fill: none; fill-opacity:0; stroke-width: 2; stroke: #000000" d="M 155.713,256.484 A 13.1699,13.1699 0 1 0 140.534,277.179"/>
    <polygon style="fill: #000000" points="146.569,278.411 137.977,285.566 139.268,280.126 135.691,275.831 "/>
    <polygon style="fill: none; fill-opacity:0; stroke-width: 2; stroke: #000000" points="146.569,278.411 137.977,285.566 139.268,280.126 135.691,275.831 "/>
  </g>
  <g>
    <path style="fill: none; fill-opacity:0; stroke-width: 2; stroke: #000000" d="M 148.746,315.9 A 13.1376,13.1376 0 1 0 149.698,341.461"/>
    <polygon style="fill: #000000" points="155.177,338.659 152.94,349.614 150.549,344.561 145.072,343.442 "/>
    <polygon style="fill: none; fill-opacity:0; stroke-width: 2; stroke: #000000" points="155.177,338.659 152.94,349.614 150.549,344.561 145.072,343.442 "/>
  </g>
  <g>
    <path style="fill: #ffffff" d="M 107.771 457.9 L 205.721,457.9 C 217.965,465.5 221.883,469.3 221.883,476.9 C 221.883,484.5 217.965,488.3 205.721,495.901 L 107.771,495.901 C 95.5272,488.3 91.6092,484.5 91.6092,476.9 C 91.6092,469.3 95.5272,465.5 107.771,457.9z"/>
    <path style="fill: none; fill-opacity:0; stroke-width: 2; stroke: #000000" d="M 107.771 457.9 L 205.721,457.9 C 217.965,465.5 221.883,469.3 221.883,476.9 C 221.883,484.5 217.965,488.3 205.721,495.901 L 107.771,495.901 C 95.5272,488.3 91.6092,484.5 91.6092,476.9 C 91.6092,469.3 95.5272,465.5 107.771,457.9"/>
    <text font-size="12.8" style="fill: #000000;text-anchor:middle;font-family:sans-serif;font-style:normal;font-weight:normal" x="156.746" y="480.9">
      <tspan x="156.746" y="480.9">CheckingOut</tspan>
    </text>
  </g>
  <g>
    <path style="fill: none; fill-opacity:0; stroke-width: 2; stroke: #000000" d="M 157.713,440.084 A 11.9897,11.9897 0 1 0 149.176,460.548"/>
    <polygon style="fill: #000000" points="155.004,459.302 150.346,469.466 149.16,464.003 144.078,461.674 "/>
    <polygon style="fill: none; fill-opacity:0; stroke-width: 2; stroke: #000000" points="155.004,459.302 150.346,469.466 149.16,464.003 144.078,461.674 "/>
  </g>
  <g>
    <polygon style="fill: #ffffff" points="82.3382,531.9 228.776,531.9 214.132,550.629 228.776,569.357 82.3382,569.357 "/>
    <polygon style="fill: none; fill-opacity:0; stroke-width: 2; stroke: #000000" points="82.3382,531.9 228.776,531.9 214.132,550.629 228.776,569.357 82.3382,569.357 "/>
    <text font-size="12.8" style="fill: #000000;text-anchor:middle;font-family:sans-serif;font-style:normal;font-weight:normal" x="155.557" y="554.629">
      <tspan x="155.557" y="554.629">MoneyRequest</tspan>
    </text>
  </g>
  <g>
    <path style="fill: none; fill-opacity:0; stroke-width: 2; stroke: #000000" d="M 156.746,495.9 A 18.1088,18.1088 0 0 0 146.849,530.36"/>
    <polygon style="fill: #000000" points="153.327,532.06 143.71,537.763 145.846,532.597 142.995,527.788 "/>
    <polygon style="fill: none; fill-opacity:0; stroke-width: 2; stroke: #000000" points="153.327,532.06 143.71,537.763 145.846,532.597 142.995,527.788 "/>
  </g>
  <g>
    <path style="fill: #ffffff" d="M 108.062 745.9 L 206.012,745.9 C 218.255,753.5 222.173,757.3 222.173,764.9 C 222.173,772.5 218.255,776.3 206.012,783.901 L 108.062,783.901 C 95.818,776.3 91.9,772.5 91.9,764.9 C 91.9,757.3 95.818,753.5 108.062,745.9z"/>
    <path style="fill: none; fill-opacity:0; stroke-width: 2; stroke: #000000" d="M 108.062 745.9 L 206.012,745.9 C 218.255,753.5 222.173,757.3 222.173,764.9 C 222.173,772.5 218.255,776.3 206.012,783.901 L 108.062,783.901 C 95.818,776.3 91.9,772.5 91.9,764.9 C 91.9,757.3 95.818,753.5 108.062,745.9"/>
    <text font-size="12.8" style="fill: #000000;text-anchor:middle;font-family:sans-serif;font-style:normal;font-weight:normal" x="157.037" y="768.9">
      <tspan x="157.037" y="768.9">End</tspan>
    </text>
  </g>
  <g>
    <path style="fill: none; fill-opacity:0; stroke-width: 2; stroke: #000000" d="M 155.557,569.357 A 19.2557,19.2557 0 0 0 148.474,606.466"/>
    <polygon style="fill: #000000" points="155.078,607.988 145.534,613.811 147.605,608.618 144.693,603.846 "/>
    <polygon style="fill: none; fill-opacity:0; stroke-width: 2; stroke: #000000" points="155.078,607.988 145.534,613.811 147.605,608.618 144.693,603.846 "/>
  </g>
  <g>
    <path style="fill: none; fill-opacity:0; stroke-width: 2; stroke: #000000" d="M 157.306,645.984 A 14.9922,14.9922 0 1 0 154.015,675.745"/>
    <polygon style="fill: #000000" points="160.364,674.908 154.156,684.206 153.85,678.624 149.2,675.52 "/>
    <polygon style="fill: none; fill-opacity:0; stroke-width: 2; stroke: #000000" points="160.364,674.908 154.156,684.206 153.85,678.624 149.2,675.52 "/>
  </g>
  <g>
    <path style="fill: none; fill-opacity:0; stroke-width: 2; stroke: #000000" d="M 162.306,711.984 A 17.363,17.363 0 0 0 148.548,743.667"/>
    <polygon style="fill: #000000" points="154.801,745.896 144.792,750.88 147.301,745.884 144.809,740.88 "/>
    <polygon style="fill: none; fill-opacity:0; stroke-width: 2; stroke: #000000" points="154.801,745.896 144.792,750.88 147.301,745.884 144.809,740.88 "/>
  </g>
  <g>
    <polygon style="fill: #ffffff" points="99.9624,607.8 203.181,607.8 214.65,626.892 203.181,645.984 99.9624,645.984 "/>
    <polygon style="fill: none; fill-opacity:0; stroke-width: 2; stroke: #000000" points="99.9624,607.8 203.181,607.8 214.65,626.892 203.181,645.984 99.9624,645.984 "/>
    <text font-size="12.8" style="fill: #000000;text-anchor:middle;font-family:sans-serif;font-style:normal;font-weight:normal" x="157.306" y="630.892">
      <tspan x="157.306" y="630.892">GiveMoney();</tspan>
    </text>
  </g>
  <g>
    <polygon style="fill: #ffffff" points="113.9,673.8 201.031,673.8 210.712,692.892 201.031,711.984 113.9,711.984 "/>
    <polygon style="fill: none; fill-opacity:0; stroke-width: 2; stroke: #000000" points="113.9,673.8 201.031,673.8 210.712,692.892 201.031,711.984 113.9,711.984 "/>
    <text font-size="12.8" style="fill: #000000;text-anchor:middle;font-family:sans-serif;font-style:normal;font-weight:normal" x="162.306" y="696.892">
      <tspan x="162.306" y="696.892">EatFood();</tspan>
    </text>
  </g>
  <g>
    <polygon style="fill: #ffffff" points="110.9,159.301 196.962,159.301 206.525,178.393 196.962,197.484 110.9,197.484 "/>
    <polygon style="fill: none; fill-opacity:0; stroke-width: 2; stroke: #000000" points="110.9,159.301 196.962,159.301 206.525,178.393 196.962,197.484 110.9,197.484 "/>
    <text font-size="12.8" style="fill: #000000;text-anchor:middle;font-family:sans-serif;font-style:normal;font-weight:normal" x="158.713" y="174.393">
      <tspan x="158.713" y="174.393">StartCar();</tspan>
      <tspan x="158.713" y="190.393"></tspan>
    </text>
  </g>
  <g>
    <polygon style="fill: #ffffff" points="107.9,218.3 193.963,218.3 203.525,237.392 193.963,256.484 107.9,256.484 "/>
    <polygon style="fill: none; fill-opacity:0; stroke-width: 2; stroke: #000000" points="107.9,218.3 193.963,218.3 203.525,237.392 193.963,256.484 107.9,256.484 "/>
    <text font-size="12.8" style="fill: #000000;text-anchor:middle;font-family:sans-serif;font-style:normal;font-weight:normal" x="155.713" y="233.392">
      <tspan x="155.713" y="233.392"></tspan>
      <tspan x="155.713" y="249.392">DriveCar();</tspan>
    </text>
  </g>
  <g>
    <path style="fill: none; fill-opacity:0; stroke-width: 2; stroke: #000000" d="M 158.712,197.484 A 12.7643,12.7643 0 1 0 147.615,219.39"/>
    <polygon style="fill: #000000" points="153.709,219.292 146.964,228.209 146.987,222.619 142.528,219.246 "/>
    <polygon style="fill: none; fill-opacity:0; stroke-width: 2; stroke: #000000" points="153.709,219.292 146.964,228.209 146.987,222.619 142.528,219.246 "/>
  </g>
  <g>
    <path style="fill: none; fill-opacity:0; stroke-width: 2; stroke: #000000" d="M 156.557,374.357 A 14.7497,14.7497 0 1 0 149.284,402.866"/>
    <polygon style="fill: #000000" points="155.658,402.783 148.445,411.325 148.767,405.744 144.496,402.137 "/>
    <polygon style="fill: none; fill-opacity:0; stroke-width: 2; stroke: #000000" points="155.658,402.783 148.445,411.325 148.767,405.744 144.496,402.137 "/>
  </g>
  <g>
    <polygon style="fill: #ffffff" points="107.9,336.9 205.214,336.9 195.483,355.629 205.214,374.357 107.9,374.357 "/>
    <polygon style="fill: none; fill-opacity:0; stroke-width: 2; stroke: #000000" points="107.9,336.9 205.214,336.9 195.483,355.629 205.214,374.357 107.9,374.357 "/>
    <text font-size="12.8" style="fill: #000000;text-anchor:middle;font-family:sans-serif;font-style:normal;font-weight:normal" x="156.557" y="359.629">
      <tspan x="156.557" y="359.629">Food</tspan>
    </text>
  </g>
  <g>
    <polygon style="fill: #ffffff" points="109.9,401.9 195.963,401.9 205.525,420.992 195.963,440.084 109.9,440.084 "/>
    <polygon style="fill: none; fill-opacity:0; stroke-width: 2; stroke: #000000" points="109.9,401.9 195.963,401.9 205.525,420.992 195.963,440.084 109.9,440.084 "/>
    <text font-size="12.8" style="fill: #000000;text-anchor:middle;font-family:sans-serif;font-style:normal;font-weight:normal" x="157.713" y="424.992">
      <tspan x="157.713" y="424.992">GetFood();</tspan>
    </text>
  </g>
</svg>
