<?xml version="1.0" encoding="UTF-8" standalone="no"?>
<!DOCTYPE svg PUBLIC "-//W3C//DTD SVG 1.0//EN" "http://www.w3.org/TR/2001/PR-SVG-20010719/DTD/svg10.dtd">
<svg width="8cm" height="37cm" viewBox="76 30 155 739" xmlns="http://www.w3.org/2000/svg" xmlns:xlink="http://www.w3.org/1999/xlink">
  <g>
    <path style="fill: #ffffff" d="M 122.02 31.9 L 195.472,31.9 C 204.654,39.5001 207.592,43.3002 207.592,50.9003 C 207.592,58.5004 204.654,62.3005 195.472,69.9006 L 122.02,69.9006 C 112.838,62.3005 109.9,58.5004 109.9,50.9003 C 109.9,43.3002 112.838,39.5001 122.02,31.9z"/>
    <path style="fill: none; fill-opacity:0; stroke-width: 2; stroke: #000000" d="M 122.02 31.9 L 195.472,31.9 C 204.654,39.5001 207.592,43.3002 207.592,50.9003 C 207.592,58.5004 204.654,62.3005 195.472,69.9006 L 122.02,69.9006 C 112.838,62.3005 109.9,58.5004 109.9,50.9003 C 109.9,43.3002 112.838,39.5001 122.02,31.9"/>
    <text font-size="12.8" style="fill: #000000;text-anchor:middle;font-family:sans-serif;font-style:normal;font-weight:normal" x="158.746" y="54.9003">
      <tspan x="158.746" y="54.9003">Start</tspan>
    </text>
  </g>
  <g>
    <polygon style="fill: #ffffff" points="108.9,92.9 206.214,92.9 196.483,111.629 206.214,130.357 108.9,130.357 "/>
    <polygon style="fill: none; fill-opacity:0; stroke-width: 2; stroke: #000000" points="108.9,92.9 206.214,92.9 196.483,111.629 206.214,130.357 108.9,130.357 "/>
    <text font-size="12.8" style="fill: #000000;text-anchor:middle;font-family:sans-serif;font-style:normal;font-weight:normal" x="157.557" y="115.629">
      <tspan x="157.557" y="115.629">Hungry</tspan>
    </text>
  </g>
  <g>
    <path style="fill: none; fill-opacity:0; stroke-width: 2; stroke: #000000" d="M 158.746,69.9006 A 13.3149,13.3149 0 1 0 149.393,94.2064"/>
    <polygon style="fill: #000000" points="155.568,93.9214 148.956,102.937 148.896,97.3471 144.388,94.0411 "/>
    <polygon style="fill: none; fill-opacity:0; stroke-width: 2; stroke: #000000" points="155.568,93.9214 148.956,102.937 148.896,97.3471 144.388,94.0411 "/>
  </g>
  <g>
    <path style="fill: none; fill-opacity:0; stroke-width: 2; stroke: #000000" d="M 157.557,130.357 A 15.2442,15.2442 0 1 0 150.187,159.924"/>
    <polygon style="fill: #000000" points="156.618,160.083 148.997,168.263 149.591,162.705 145.501,158.894 "/>
    <polygon style="fill: none; fill-opacity:0; stroke-width: 2; stroke: #000000" points="156.618,160.083 148.997,168.263 149.591,162.705 145.501,158.894 "/>
  </g>
  <g>
    <path style="fill: #ffffff" d="M 94.8959 277.9 L 202.596,277.9 C 216.058,285.5 220.366,289.3 220.366,296.9 C 220.366,304.5 216.058,308.3 202.596,315.901 L 94.8959,315.901 C 81.4334,308.3 77.1254,304.5 77.1254,296.9 C 77.1254,289.3 81.4334,285.5 94.8959,277.9z"/>
    <path style="fill: none; fill-opacity:0; stroke-width: 2; stroke: #000000" d="M 94.8959 277.9 L 202.596,277.9 C 216.058,285.5 220.366,289.3 220.366,296.9 C 220.366,304.5 216.058,308.3 202.596,315.901 L 94.8959,315.901 C 81.4334,308.3 77.1254,304.5 77.1254,296.9 C 77.1254,289.3 81.4334,285.5 94.8959,277.9"/>
    <text font-size="12.8" style="fill: #000000;text-anchor:middle;font-family:sans-serif;font-style:normal;font-weight:normal" x="148.746" y="300.9">
      <tspan x="148.746" y="300.9">LookingForFood</tspan>
    </text>
  </g>
  <g>
    <path style="fill: none; fill-opacity:0; stroke-width: 2; stroke: #000000" d="M 155.713,256.484 A 13.1697,13.1697 0 1 0 140.534,277.179"/>
    <polygon style="fill: #000000" points="146.569,278.411 137.978,285.566 139.268,280.127 135.691,275.831 "/>
    <polygon style="fill: none; fill-opacity:0; stroke-width: 2; stroke: #000000" points="146.569,278.411 137.978,285.566 139.268,280.127 135.691,275.831 "/>
  </g>
  <g>
    <path style="fill: none; fill-opacity:0; stroke-width: 2; stroke: #000000" d="M 148.746,315.901 A 11.9128,11.9128 0 1 0 143.561,337.189"/>
    <polygon style="fill: #000000" points="149.081,334.981 146.237,345.793 144.131,340.615 138.725,339.193 "/>
    <polygon style="fill: none; fill-opacity:0; stroke-width: 2; stroke: #000000" points="149.081,334.981 146.237,345.793 144.131,340.615 138.725,339.193 "/>
  </g>
  <g>
    <path style="fill: #ffffff" d="M 107.771 457.9 L 205.721,457.9 C 217.965,465.5 221.883,469.3 221.883,476.9 C 221.883,484.5 217.965,488.3 205.721,495.901 L 107.771,495.901 C 95.5272,488.3 91.6092,484.5 91.6092,476.9 C 91.6092,469.3 95.5272,465.5 107.771,457.9z"/>
    <path style="fill: none; fill-opacity:0; stroke-width: 2; stroke: #000000" d="M 107.771 457.9 L 205.721,457.9 C 217.965,465.5 221.883,469.3 221.883,476.9 C 221.883,484.5 217.965,488.3 205.721,495.901 L 107.771,495.901 C 95.5272,488.3 91.6092,484.5 91.6092,476.9 C 91.6092,469.3 95.5272,465.5 107.771,457.9"/>
    <text font-size="12.8" style="fill: #000000;text-anchor:middle;font-family:sans-serif;font-style:normal;font-weight:normal" x="156.746" y="480.9">
      <tspan x="156.746" y="480.9">CheckingOut</tspan>
    </text>
  </g>
  <g>
    <path style="fill: none; fill-opacity:0; stroke-width: 2; stroke: #000000" d="M 152.557,435.301 A 13.3017,13.3017 0 1 0 149.117,461.081"/>
    <polygon style="fill: #000000" points="155.052,459.359 150.738,469.674 149.369,464.254 144.212,462.097 "/>
    <polygon style="fill: none; fill-opacity:0; stroke-width: 2; stroke: #000000" points="155.052,459.359 150.738,469.674 149.369,464.254 144.212,462.097 "/>
  </g>
  <g>
    <polygon style="fill: #ffffff" points="82.3382,518.9 228.776,518.9 214.132,537.629 228.776,556.357 82.3382,556.357 "/>
    <polygon style="fill: none; fill-opacity:0; stroke-width: 2; stroke: #000000" points="82.3382,518.9 228.776,518.9 214.132,537.629 228.776,556.357 82.3382,556.357 "/>
    <text font-size="12.8" style="fill: #000000;text-anchor:middle;font-family:sans-serif;font-style:normal;font-weight:normal" x="155.557" y="541.629">
      <tspan x="155.557" y="541.629">MoneyRequest</tspan>
    </text>
  </g>
  <g>
    <path style="fill: none; fill-opacity:0; stroke-width: 2; stroke: #000000" d="M 156.746,495.901 A 13.3149,13.3149 0 1 0 147.393,520.206"/>
    <polygon style="fill: #000000" points="153.568,519.921 146.956,528.937 146.896,523.347 142.388,520.041 "/>
    <polygon style="fill: none; fill-opacity:0; stroke-width: 2; stroke: #000000" points="153.568,519.921 146.956,528.937 146.896,523.347 142.388,520.041 "/>
  </g>
  <g>
    <path style="fill: #ffffff" d="M 108.062 729.9 L 206.012,729.9 C 218.255,737.5 222.173,741.3 222.173,748.9 C 222.173,756.5 218.255,760.3 206.012,767.901 L 108.062,767.901 C 95.818,760.3 91.9,756.5 91.9,748.9 C 91.9,741.3 95.818,737.5 108.062,729.9z"/>
    <path style="fill: none; fill-opacity:0; stroke-width: 2; stroke: #000000" d="M 108.062 729.9 L 206.012,729.9 C 218.255,737.5 222.173,741.3 222.173,748.9 C 222.173,756.5 218.255,760.3 206.012,767.901 L 108.062,767.901 C 95.818,760.3 91.9,756.5 91.9,748.9 C 91.9,741.3 95.818,737.5 108.062,729.9"/>
    <text font-size="12.8" style="fill: #000000;text-anchor:middle;font-family:sans-serif;font-style:normal;font-weight:normal" x="157.037" y="752.9">
      <tspan x="157.037" y="752.9">End</tspan>
    </text>
  </g>
  <g>
    <path style="fill: none; fill-opacity:0; stroke-width: 2; stroke: #000000" d="M 155.557,556.357 A 16.5885,16.5885 0 0 0 145.646,587.96"/>
    <polygon style="fill: #000000" points="152.102,589.176 143.083,595.783 144.708,590.435 141.405,585.925 "/>
    <polygon style="fill: none; fill-opacity:0; stroke-width: 2; stroke: #000000" points="152.102,589.176 143.083,595.783 144.708,590.435 141.405,585.925 "/>
  </g>
  <g>
    <path style="fill: none; fill-opacity:0; stroke-width: 2; stroke: #000000" d="M 154.306,626.984 A 19.9646,19.9646 0 0 0 148.426,665.46"/>
    <polygon style="fill: #000000" points="155.077,666.973 145.491,672.727 147.599,667.549 144.722,662.757 "/>
    <polygon style="fill: none; fill-opacity:0; stroke-width: 2; stroke: #000000" points="155.077,666.973 145.491,672.727 147.599,667.549 144.722,662.757 "/>
  </g>
  <g>
    <path style="fill: none; fill-opacity:0; stroke-width: 2; stroke: #000000" d="M 157.306,704.984 A 13.8804,13.8804 0 1 0 148.76,731.066"/>
    <polygon style="fill: #000000" points="155.019,730.864 148.152,739.687 148.252,734.098 143.841,730.664 "/>
    <polygon style="fill: none; fill-opacity:0; stroke-width: 2; stroke: #000000" points="155.019,730.864 148.152,739.687 148.252,734.098 143.841,730.664 "/>
  </g>
  <g>
    <polygon style="fill: #ffffff" points="96.9625,588.801 200.181,588.801 211.65,607.893 200.181,626.984 96.9625,626.984 "/>
    <polygon style="fill: none; fill-opacity:0; stroke-width: 2; stroke: #000000" points="96.9625,588.801 200.181,588.801 211.65,607.893 200.181,626.984 96.9625,626.984 "/>
    <text font-size="12.8" style="fill: #000000;text-anchor:middle;font-family:sans-serif;font-style:normal;font-weight:normal" x="154.306" y="611.893">
      <tspan x="154.306" y="611.893">GiveMoney();</tspan>
    </text>
  </g>
  <g>
    <polygon style="fill: #ffffff" points="108.9,666.801 196.031,666.801 205.712,685.893 196.031,704.984 108.9,704.984 "/>
    <polygon style="fill: none; fill-opacity:0; stroke-width: 2; stroke: #000000" points="108.9,666.801 196.031,666.801 205.712,685.893 196.031,704.984 108.9,704.984 "/>
    <text font-size="12.8" style="fill: #000000;text-anchor:middle;font-family:sans-serif;font-style:normal;font-weight:normal" x="157.306" y="689.893">
      <tspan x="157.306" y="689.893">EatFood();</tspan>
    </text>
  </g>
  <g>
    <polygon style="fill: #ffffff" points="110.9,159.301 196.962,159.301 206.525,178.393 196.962,197.484 110.9,197.484 "/>
    <polygon style="fill: none; fill-opacity:0; stroke-width: 2; stroke: #000000" points="110.9,159.301 196.962,159.301 206.525,178.393 196.962,197.484 110.9,197.484 "/>
    <text font-size="12.8" style="fill: #000000;text-anchor:middle;font-family:sans-serif;font-style:normal;font-weight:normal" x="158.713" y="174.393">
      <tspan x="158.713" y="174.393">StartCar();</tspan>
      <tspan x="158.713" y="190.393"></tspan>
    </text>
  </g>
  <g>
    <polygon style="fill: #ffffff" points="107.9,218.301 193.963,218.301 203.525,237.393 193.963,256.484 107.9,256.484 "/>
    <polygon style="fill: none; fill-opacity:0; stroke-width: 2; stroke: #000000" points="107.9,218.301 193.963,218.301 203.525,237.393 193.963,256.484 107.9,256.484 "/>
    <text font-size="12.8" style="fill: #000000;text-anchor:middle;font-family:sans-serif;font-style:normal;font-weight:normal" x="155.713" y="233.393">
      <tspan x="155.713" y="233.393"></tspan>
      <tspan x="155.713" y="249.393">DriveCar();</tspan>
    </text>
  </g>
  <g>
    <path style="fill: none; fill-opacity:0; stroke-width: 2; stroke: #000000" d="M 158.713,197.484 A 12.7645,12.7645 0 1 0 147.614,219.39"/>
    <polygon style="fill: #000000" points="153.708,219.293 146.964,228.209 146.986,222.619 142.528,219.247 "/>
    <polygon style="fill: none; fill-opacity:0; stroke-width: 2; stroke: #000000" points="153.708,219.293 146.964,228.209 146.986,222.619 142.528,219.247 "/>
  </g>
  <g>
    <polygon style="fill: #ffffff" points="101.9,333.301 199.214,333.301 189.483,352.301 199.214,371.301 101.9,371.301 "/>
    <polygon style="fill: none; fill-opacity:0; stroke-width: 2; stroke: #000000" points="101.9,333.301 199.214,333.301 189.483,352.301 199.214,371.301 101.9,371.301 "/>
    <text font-size="12.8" style="fill: #000000;text-anchor:middle;font-family:sans-serif;font-style:normal;font-weight:normal" x="150.557" y="348.301">
      <tspan x="150.557" y="348.301">Food();</tspan>
      <tspan x="150.557" y="364.301"></tspan>
    </text>
  </g>
  <g>
    <polygon style="fill: #ffffff" points="103.9,397.301 201.214,397.301 191.483,416.301 201.214,435.301 103.9,435.301 "/>
    <polygon style="fill: none; fill-opacity:0; stroke-width: 2; stroke: #000000" points="103.9,397.301 201.214,397.301 191.483,416.301 201.214,435.301 103.9,435.301 "/>
    <text font-size="12.8" style="fill: #000000;text-anchor:middle;font-family:sans-serif;font-style:normal;font-weight:normal" x="152.557" y="420.301">
      <tspan x="152.557" y="420.301">GetFood();</tspan>
    </text>
  </g>
  <g>
    <path style="fill: none; fill-opacity:0; stroke-width: 2; stroke: #000000" d="M 150.557,371.301 A 14.25,14.25 0 1 0 144.298,398.91"/>
    <polygon style="fill: #000000" points="150.586,398.357 144.135,407.489 143.976,401.901 139.411,398.676 "/>
    <polygon style="fill: none; fill-opacity:0; stroke-width: 2; stroke: #000000" points="150.586,398.357 144.135,407.489 143.976,401.901 139.411,398.676 "/>
  </g>
</svg>
