<?xml version="1.0" encoding="UTF-8" standalone="no"?>
<!DOCTYPE svg PUBLIC "-//W3C//DTD SVG 1.0//EN" "http://www.w3.org/TR/2001/PR-SVG-20010719/DTD/svg10.dtd">
<svg width="25cm" height="47cm" viewBox="-40 21 486 921" xmlns="http://www.w3.org/2000/svg" xmlns:xlink="http://www.w3.org/1999/xlink">
  <g>
    <path style="fill: #ffffff" d="M 112.12 22.0002 L 185.572,22.0002 C 194.754,29.6003 197.692,33.4004 197.692,41.0005 C 197.692,48.6006 194.754,52.4007 185.572,60.0008 L 112.12,60.0008 C 102.938,52.4007 100,48.6006 100,41.0005 C 100,33.4004 102.938,29.6003 112.12,22.0002z"/>
    <path style="fill: none; fill-opacity:0; stroke-width: 2; stroke: #000000" d="M 112.12 22.0002 L 185.572,22.0002 C 194.754,29.6003 197.692,33.4004 197.692,41.0005 C 197.692,48.6006 194.754,52.4007 185.572,60.0008 L 112.12,60.0008 C 102.938,52.4007 100,48.6006 100,41.0005 C 100,33.4004 102.938,29.6003 112.12,22.0002"/>
    <text font-size="12.8" style="fill: #000000;text-anchor:middle;font-family:sans-serif;font-style:normal;font-weight:normal" x="148.846" y="45.8005">
      <tspan x="148.846" y="45.8005">Stop</tspan>
    </text>
  </g>
  <g>
    <polygon style="fill: #ffffff" points="101.863,101.799 198.399,101.799 188.745,121.15 198.399,140.501 101.863,140.501 "/>
    <polygon style="fill: none; fill-opacity:0; stroke-width: 2; stroke: #000000" points="101.863,101.799 198.399,101.799 188.745,121.15 198.399,140.501 101.863,140.501 "/>
    <text font-size="12.8" style="fill: #000000;text-anchor:middle;font-family:sans-serif;font-style:normal;font-weight:normal" x="150.131" y="125.95">
      <tspan x="150.131" y="125.95">Timer(3)</tspan>
    </text>
  </g>
  <g>
    <polygon style="fill: #ffffff" points="101.629,181.184 188.085,181.184 197.692,201.184 188.085,221.184 101.629,221.184 "/>
    <polygon style="fill: none; fill-opacity:0; stroke-width: 2; stroke: #000000" points="101.629,181.184 188.085,181.184 197.692,201.184 188.085,221.184 101.629,221.184 "/>
    <text font-size="12.8" style="fill: #000000;text-anchor:middle;font-family:sans-serif;font-style:normal;font-weight:normal" x="149.66" y="205.984">
      <tspan x="149.66" y="205.984">Line Follow</tspan>
    </text>
  </g>
  <g>
    <path style="fill: #ffffff" d="M 113.911 261.397 L 185.826,261.397 C 194.815,269.397 197.692,273.397 197.692,281.397 C 197.692,289.397 194.815,293.397 185.826,301.397 L 113.911,301.397 C 104.921,293.397 102.045,289.397 102.045,281.397 C 102.045,273.397 104.921,269.397 113.911,261.397z"/>
    <path style="fill: none; fill-opacity:0; stroke-width: 2; stroke: #000000" d="M 113.911 261.397 L 185.826,261.397 C 194.815,269.397 197.692,273.397 197.692,281.397 C 197.692,289.397 194.815,293.397 185.826,301.397 L 113.911,301.397 C 104.921,293.397 102.045,289.397 102.045,281.397 C 102.045,273.397 104.921,269.397 113.911,261.397"/>
    <text font-size="12.8" style="fill: #000000;text-anchor:middle;font-family:sans-serif;font-style:normal;font-weight:normal" x="149.868" y="286.197">
      <tspan x="149.868" y="286.197">Drive</tspan>
    </text>
  </g>
  <g>
    <polygon style="fill: #ffffff" points="101.293,340.903 199.293,340.903 189.493,359.903 199.293,378.903 101.293,378.903 "/>
    <polygon style="fill: none; fill-opacity:0; stroke-width: 2; stroke: #000000" points="101.293,340.903 199.293,340.903 189.493,359.903 199.293,378.903 101.293,378.903 "/>
    <text font-size="12.8" style="fill: #000000;text-anchor:middle;font-family:sans-serif;font-style:normal;font-weight:normal" x="150.293" y="364.703">
      <tspan x="150.293" y="364.703">Intersection</tspan>
    </text>
  </g>
  <g>
    <polygon style="fill: #ffffff" points="100.586,420.409 191.486,420.409 201.586,441.409 191.486,462.409 100.586,462.409 "/>
    <polygon style="fill: none; fill-opacity:0; stroke-width: 2; stroke: #000000" points="100.586,420.409 191.486,420.409 201.586,441.409 191.486,462.409 100.586,462.409 "/>
    <text font-size="12.8" style="fill: #000000;text-anchor:middle;font-family:sans-serif;font-style:normal;font-weight:normal" x="151.086" y="446.209">
      <tspan x="151.086" y="446.209">Straighten</tspan>
    </text>
  </g>
  <g>
    <path style="fill: #ffffff" d="M 112.417 501.503 L 186.849,501.503 C 196.154,509.097 199.131,512.894 199.131,520.488 C 199.131,528.082 196.154,531.879 186.849,539.474 L 112.417,539.474 C 103.113,531.879 100.136,528.082 100.136,520.488 C 100.136,512.894 103.113,509.097 112.417,501.503z"/>
    <path style="fill: none; fill-opacity:0; stroke-width: 2; stroke: #000000" d="M 112.417 501.503 L 186.849,501.503 C 196.154,509.097 199.131,512.894 199.131,520.488 C 199.131,528.082 196.154,531.879 186.849,539.474 L 112.417,539.474 C 103.113,531.879 100.136,528.082 100.136,520.488 C 100.136,512.894 103.113,509.097 112.417,501.503"/>
    <text font-size="12.8" style="fill: #000000;text-anchor:middle;font-family:sans-serif;font-style:normal;font-weight:normal" x="149.633" y="525.288">
      <tspan x="149.633" y="525.288">WaitSign</tspan>
    </text>
  </g>
  <g>
    <polygon style="fill: #ffffff" points="-38.0122,581.302 58.5685,581.302 48.9105,600.339 58.5685,619.377 -38.0122,619.377 "/>
    <polygon style="fill: none; fill-opacity:0; stroke-width: 2; stroke: #000000" points="-38.0122,581.302 58.5685,581.302 48.9105,600.339 58.5685,619.377 -38.0122,619.377 "/>
    <text font-size="12.8" style="fill: #000000;text-anchor:middle;font-family:sans-serif;font-style:normal;font-weight:normal" x="10.2782" y="605.139">
      <tspan x="10.2782" y="605.139">GoSign</tspan>
    </text>
  </g>
  <g>
    <polygon style="fill: #ffffff" points="101.393,581.009 200.545,581.009 190.63,601.009 200.545,621.009 101.393,621.009 "/>
    <polygon style="fill: none; fill-opacity:0; stroke-width: 2; stroke: #000000" points="101.393,581.009 200.545,581.009 190.63,601.009 200.545,621.009 101.393,621.009 "/>
    <text font-size="12.8" style="fill: #000000;text-anchor:middle;font-family:sans-serif;font-style:normal;font-weight:normal" x="150.969" y="605.809">
      <tspan x="150.969" y="605.809">LeftSign</tspan>
    </text>
  </g>
  <g>
    <polygon style="fill: #ffffff" points="239.971,581.13 343.971,581.13 333.571,600.254 343.971,619.377 239.971,619.377 "/>
    <polygon style="fill: none; fill-opacity:0; stroke-width: 2; stroke: #000000" points="239.971,581.13 343.971,581.13 333.571,600.254 343.971,619.377 239.971,619.377 "/>
    <text font-size="12.8" style="fill: #000000;text-anchor:middle;font-family:sans-serif;font-style:normal;font-weight:normal" x="291.971" y="605.054">
      <tspan x="291.971" y="605.054">RightSign</tspan>
    </text>
  </g>
  <g>
    <polygon style="fill: #ffffff" points="-38.8713,661.808 57.7662,661.808 68.5037,680.808 57.7662,699.808 -38.8713,699.808 "/>
    <polygon style="fill: none; fill-opacity:0; stroke-width: 2; stroke: #000000" points="-38.8713,661.808 57.7662,661.808 68.5037,680.808 57.7662,699.808 -38.8713,699.808 "/>
    <text font-size="12.8" style="fill: #000000;text-anchor:middle;font-family:sans-serif;font-style:normal;font-weight:normal" x="14.8162" y="685.608">
      <tspan x="14.8162" y="685.608">FowardMotors</tspan>
    </text>
  </g>
  <g>
    <polygon style="fill: #ffffff" points="101.179,661.394 203.329,661.394 214.679,680.394 203.329,699.394 101.179,699.394 "/>
    <polygon style="fill: none; fill-opacity:0; stroke-width: 2; stroke: #000000" points="101.179,661.394 203.329,661.394 214.679,680.394 203.329,699.394 101.179,699.394 "/>
    <text font-size="12.8" style="fill: #000000;text-anchor:middle;font-family:sans-serif;font-style:normal;font-weight:normal" x="157.929" y="677.194">
      <tspan x="157.929" y="677.194">FowardMotors/</tspan>
      <tspan x="157.929" y="693.194">LeftMotors</tspan>
    </text>
  </g>
  <g>
    <polygon style="fill: #ffffff" points="240.707,661.015 332.614,661.015 342.825,680.015 332.614,699.015 240.707,699.015 "/>
    <polygon style="fill: none; fill-opacity:0; stroke-width: 2; stroke: #000000" points="240.707,661.015 332.614,661.015 342.825,680.015 332.614,699.015 240.707,699.015 "/>
    <text font-size="12.8" style="fill: #000000;text-anchor:middle;font-family:sans-serif;font-style:normal;font-weight:normal" x="291.766" y="684.815">
      <tspan x="291.766" y="684.815">RightMotors</tspan>
    </text>
  </g>
  <g>
    <path style="fill: #ffffff" d="M 113.149 740.515 L 186.477,740.515 C 195.643,748.315 198.576,752.215 198.576,760.015 C 198.576,767.815 195.643,771.715 186.477,779.515 L 113.149,779.515 C 103.983,771.715 101.05,767.815 101.05,760.015 C 101.05,752.215 103.983,748.315 113.149,740.515z"/>
    <path style="fill: none; fill-opacity:0; stroke-width: 2; stroke: #000000" d="M 113.149 740.515 L 186.477,740.515 C 195.643,748.315 198.576,752.215 198.576,760.015 C 198.576,767.815 195.643,771.715 186.477,779.515 L 113.149,779.515 C 103.983,771.715 101.05,767.815 101.05,760.015 C 101.05,752.215 103.983,748.315 113.149,740.515"/>
    <text font-size="12.8" style="fill: #000000;text-anchor:middle;font-family:sans-serif;font-style:normal;font-weight:normal" x="149.813" y="764.815">
      <tspan x="149.813" y="764.815">Block</tspan>
    </text>
  </g>
  <g>
    <polygon style="fill: #ffffff" points="101.393,821.314 199.283,821.314 189.494,840.314 199.283,859.314 101.393,859.314 "/>
    <polygon style="fill: none; fill-opacity:0; stroke-width: 2; stroke: #000000" points="101.393,821.314 199.283,821.314 189.494,840.314 199.283,859.314 101.393,859.314 "/>
    <text font-size="12.8" style="fill: #000000;text-anchor:middle;font-family:sans-serif;font-style:normal;font-weight:normal" x="150.338" y="845.114">
      <tspan x="150.338" y="845.114">MotorDone</tspan>
    </text>
  </g>
  <g>
    <polygon style="fill: #ffffff" points="100.65,900.408 188.783,900.408 198.576,920.257 188.783,940.107 100.65,940.107 "/>
    <polygon style="fill: none; fill-opacity:0; stroke-width: 2; stroke: #000000" points="100.65,900.408 188.783,900.408 198.576,920.257 188.783,940.107 100.65,940.107 "/>
    <text font-size="12.8" style="fill: #000000;text-anchor:middle;font-family:sans-serif;font-style:normal;font-weight:normal" x="149.613" y="925.057">
      <tspan x="149.613" y="925.057">LineFollow</tspan>
    </text>
  </g>
  <g>
    <polygon style="fill: #ffffff" points="221.295,340.823 316.295,340.823 306.795,359.833 316.295,378.842 221.295,378.842 "/>
    <polygon style="fill: none; fill-opacity:0; stroke-width: 2; stroke: #000000" points="221.295,340.823 316.295,340.823 306.795,359.833 316.295,378.842 221.295,378.842 "/>
    <text font-size="12.8" style="fill: #000000;text-anchor:middle;font-family:sans-serif;font-style:normal;font-weight:normal" x="268.795" y="364.633">
      <tspan x="268.795" y="364.633">ParkSign</tspan>
    </text>
  </g>
  <g>
    <polygon style="fill: #ffffff" points="221.588,420.794 307.088,420.794 316.588,440.573 307.088,460.352 221.588,460.352 "/>
    <polygon style="fill: none; fill-opacity:0; stroke-width: 2; stroke: #000000" points="221.588,420.794 307.088,420.794 316.588,440.573 307.088,460.352 221.588,460.352 "/>
    <text font-size="12.8" style="fill: #000000;text-anchor:middle;font-family:sans-serif;font-style:normal;font-weight:normal" x="269.088" y="445.373">
      <tspan x="269.088" y="445.373">ParkCar</tspan>
    </text>
  </g>
  <g>
    <path style="fill: #ffffff" d="M 233.896 501.986 L 304.203,501.986 C 312.991,509.586 315.803,513.386 315.803,520.986 C 315.803,528.586 312.991,532.386 304.203,539.986 L 233.896,539.986 C 225.107,532.386 222.295,528.586 222.295,520.986 C 222.295,513.386 225.107,509.586 233.896,501.986z"/>
    <path style="fill: none; fill-opacity:0; stroke-width: 2; stroke: #000000" d="M 233.896 501.986 L 304.203,501.986 C 312.991,509.586 315.803,513.386 315.803,520.986 C 315.803,528.586 312.991,532.386 304.203,539.986 L 233.896,539.986 C 225.107,532.386 222.295,528.586 222.295,520.986 C 222.295,513.386 225.107,509.586 233.896,501.986"/>
    <text font-size="12.8" style="fill: #000000;text-anchor:middle;font-family:sans-serif;font-style:normal;font-weight:normal" x="269.049" y="525.786">
      <tspan x="269.049" y="525.786">Park</tspan>
    </text>
  </g>
  <g>
    <polygon style="fill: #ffffff" points="221.293,181.513 318.607,181.513 308.876,200.242 318.607,218.971 221.293,218.971 "/>
    <polygon style="fill: none; fill-opacity:0; stroke-width: 2; stroke: #000000" points="221.293,181.513 318.607,181.513 308.876,200.242 318.607,218.971 221.293,218.971 "/>
    <text font-size="12.8" style="fill: #000000;text-anchor:middle;font-family:sans-serif;font-style:normal;font-weight:normal" x="269.95" y="205.042">
      <tspan x="269.95" y="205.042">StopSign</tspan>
    </text>
  </g>
  <g>
    <polygon style="fill: #ffffff" points="222,101.799 308.4,101.799 318,120.799 308.4,139.799 222,139.799 "/>
    <polygon style="fill: none; fill-opacity:0; stroke-width: 2; stroke: #000000" points="222,101.799 308.4,101.799 318,120.799 308.4,139.799 222,139.799 "/>
    <text font-size="12.8" style="fill: #000000;text-anchor:middle;font-family:sans-serif;font-style:normal;font-weight:normal" x="270" y="125.599">
      <tspan x="270" y="125.599">StopMotor</tspan>
    </text>
  </g>
  <g>
    <path style="fill: none; fill-opacity:0; stroke-width: 2; stroke: #000000" d="M 270,101.799 A 68.4905,68.4905 0 0 0 199.207,40.6795"/>
    <polyline style="fill: none; fill-opacity:0; stroke-width: 2; stroke: #000000" points="206.401,34.7508 196.977,40.7671 207.445,44.6962 "/>
  </g>
  <g>
    <path style="fill: none; fill-opacity:0; stroke-width: 2; stroke: #000000" d="M 269.95,181.513 A 20.8756,20.8756 0 0 0 274.349,140.45"/>
    <polyline style="fill: none; fill-opacity:0; stroke-width: 2; stroke: #000000" points="282.44,135.332 272.234,139.895 282.009,145.322 "/>
  </g>
  <g>
    <path style="fill: none; fill-opacity:0; stroke-width: 2; stroke: #000000" d="M 148.846,60.0008 A 20.9297,20.9297 0 0 0 145.764,101.277"/>
    <polyline style="fill: none; fill-opacity:0; stroke-width: 2; stroke: #000000" points="137.828,106.631 147.895,101.769 137.965,96.6321 "/>
  </g>
  <g>
    <path style="fill: none; fill-opacity:0; stroke-width: 2; stroke: #000000" d="M 150.131,140.501 A 20.3457,20.3457 0 0 0 145.308,180.585"/>
    <polyline style="fill: none; fill-opacity:0; stroke-width: 2; stroke: #000000" points="137.286,185.832 147.425,181.12 137.572,175.837 "/>
  </g>
  <g>
    <path style="fill: none; fill-opacity:0; stroke-width: 2; stroke: #000000" d="M 149.66,221.184 A 20.1071,20.1071 0 0 0 145.503,260.917"/>
    <polyline style="fill: none; fill-opacity:0; stroke-width: 2; stroke: #000000" points="137.631,266.395 147.632,261.397 137.633,256.395 "/>
  </g>
  <g>
    <path style="fill: none; fill-opacity:0; stroke-width: 2; stroke: #000000" d="M 194.815,281.397 A 69.6394,69.6394 0 0 0 269.361,223.397"/>
    <polyline style="fill: none; fill-opacity:0; stroke-width: 2; stroke: #000000" points="273.701,231.645 269.726,221.195 263.751,230.645 "/>
  </g>
  <g>
    <path style="fill: none; fill-opacity:0; stroke-width: 2; stroke: #000000" d="M 194.815,281.397 A 66.2781,66.2781 0 0 0 264.347,341.213"/>
    <polyline style="fill: none; fill-opacity:0; stroke-width: 2; stroke: #000000" points="257.253,347.265 266.575,341.094 256.044,337.338 "/>
  </g>
  <g>
    <path style="fill: none; fill-opacity:0; stroke-width: 2; stroke: #000000" d="M 149.868,301.397 A 19.7557,19.7557 0 0 0 145.921,340.516"/>
    <polyline style="fill: none; fill-opacity:0; stroke-width: 2; stroke: #000000" points="138.176,346.185 148.057,340.955 137.945,336.187 "/>
  </g>
  <g>
    <path style="fill: none; fill-opacity:0; stroke-width: 2; stroke: #000000" d="M 268.795,378.842 A 21.0005,21.0005 0 0 0 264.736,420.156"/>
    <polyline style="fill: none; fill-opacity:0; stroke-width: 2; stroke: #000000" points="256.659,425.292 266.854,420.703 257.065,415.3 "/>
  </g>
  <g>
    <path style="fill: none; fill-opacity:0; stroke-width: 2; stroke: #000000" d="M 269.088,460.352 A 20.8339,20.8339 0 0 0 264.699,501.344"/>
    <polyline style="fill: none; fill-opacity:0; stroke-width: 2; stroke: #000000" points="256.619,506.481 266.815,501.895 257.028,496.489 "/>
  </g>
  <g>
    <path style="fill: none; fill-opacity:0; stroke-width: 2; stroke: #000000" d="M 150.293,378.903 A 20.7712,20.7712 0 0 0 146.723,419.865"/>
    <polyline style="fill: none; fill-opacity:0; stroke-width: 2; stroke: #000000" points="138.762,425.188 148.85,420.369 138.942,415.189 "/>
  </g>
  <g>
    <path style="fill: none; fill-opacity:0; stroke-width: 2; stroke: #000000" d="M 148.926,463.783 A 18.8957,18.8957 0 0 0 145.255,501.332"/>
    <polyline style="fill: none; fill-opacity:0; stroke-width: 2; stroke: #000000" points="137.819,507.432 147.404,501.676 137.048,497.462 "/>
  </g>
  <g>
    <path style="fill: none; fill-opacity:0; stroke-width: 2; stroke: #000000" d="M 149.633,539.474 A 142.309,142.309 0 0 0 13.3525,578.057"/>
    <polyline style="fill: none; fill-opacity:0; stroke-width: 2; stroke: #000000" points="14.8689,568.907 11.7902,579.655 22.2359,575.669 "/>
  </g>
  <g>
    <path style="fill: none; fill-opacity:0; stroke-width: 2; stroke: #000000" d="M 149.633,539.474 A 20.7937,20.7937 0 0 0 146.6,580.518"/>
    <polyline style="fill: none; fill-opacity:0; stroke-width: 2; stroke: #000000" points="138.703,585.935 148.733,580.996 138.764,575.935 "/>
  </g>
  <g>
    <path style="fill: none; fill-opacity:0; stroke-width: 2; stroke: #000000" d="M 149.633,539.474 A 147.47,147.47 0 0 0 287.615,582.137"/>
    <polyline style="fill: none; fill-opacity:0; stroke-width: 2; stroke: #000000" points="281.291,588.919 289.8,581.667 278.892,579.211 "/>
  </g>
  <g>
    <path style="fill: none; fill-opacity:0; stroke-width: 2; stroke: #000000" d="M 10.2782,619.377 A 21.3814,21.3814 0 0 0 10.4237,661.539"/>
    <polyline style="fill: none; fill-opacity:0; stroke-width: 2; stroke: #000000" points="2.8003,667.316 12.5821,661.902 2.3815,657.325 "/>
  </g>
  <g>
    <path style="fill: none; fill-opacity:0; stroke-width: 2; stroke: #000000" d="M 150.969,621.009 A 20.496,20.496 0 0 0 153.538,661.565"/>
    <polyline style="fill: none; fill-opacity:0; stroke-width: 2; stroke: #000000" points="146.554,668.126 155.717,661.72 145.094,658.233 "/>
  </g>
  <g>
    <path style="fill: none; fill-opacity:0; stroke-width: 2; stroke: #000000" d="M 291.971,619.377 A 20.8363,20.8363 0 0 0 287.419,660.355"/>
    <polyline style="fill: none; fill-opacity:0; stroke-width: 2; stroke: #000000" points="279.317,665.459 289.532,660.915 279.768,655.469 "/>
  </g>
  <g>
    <path style="fill: none; fill-opacity:0; stroke-width: 2; stroke: #000000" d="M 14.8162,699.808 A 134.258,134.258 0 0 0 145.474,741.592"/>
    <polyline style="fill: none; fill-opacity:0; stroke-width: 2; stroke: #000000" points="139.273,748.493 147.652,741.09 136.703,738.829 "/>
  </g>
  <g>
    <path style="fill: none; fill-opacity:0; stroke-width: 2; stroke: #000000" d="M 157.929,699.394 A 20.9802,20.9802 0 0 0 145.676,739.021"/>
    <polyline style="fill: none; fill-opacity:0; stroke-width: 2; stroke: #000000" points="136.736,742.442 147.642,739.98 139.129,732.733 "/>
  </g>
  <g>
    <path style="fill: none; fill-opacity:0; stroke-width: 2; stroke: #000000" d="M 291.766,699.015 A 146.706,146.706 0 0 0 152.936,737.316"/>
    <polyline style="fill: none; fill-opacity:0; stroke-width: 2; stroke: #000000" points="154.595,728.192 151.35,738.892 161.856,735.068 "/>
  </g>
  <g>
    <path style="fill: none; fill-opacity:0; stroke-width: 2; stroke: #000000" d="M 149.813,779.515 A 20.9214,20.9214 0 0 0 145.981,820.715"/>
    <polyline style="fill: none; fill-opacity:0; stroke-width: 2; stroke: #000000" points="137.951,825.926 148.103,821.244 138.266,815.931 "/>
  </g>
  <g>
    <path style="fill: none; fill-opacity:0; stroke-width: 2; stroke: #000000" d="M 149.613,940.107 A 342.702,342.702 0 0 0 154.292,262.051"/>
    <polyline style="fill: none; fill-opacity:0; stroke-width: 2; stroke: #000000" points="162.683,258.157 152.082,261.71 161.285,268.058 "/>
  </g>
  <g>
    <path style="fill: none; fill-opacity:0; stroke-width: 2; stroke: #000000" d="M 150.338,859.314 A 20.5577,20.5577 0 0 0 145.268,899.743"/>
    <polyline style="fill: none; fill-opacity:0; stroke-width: 2; stroke: #000000" points="137.165,904.855 147.379,900.308 137.613,894.865 "/>
  </g>
</svg>
