<?xml version="1.0" encoding="UTF-8" standalone="no"?>
<!DOCTYPE svg PUBLIC "-//W3C//DTD SVG 1.0//EN" "http://www.w3.org/TR/2001/PR-SVG-20010719/DTD/svg10.dtd">
<svg width="28cm" height="47cm" viewBox="1 23 554 921" xmlns="http://www.w3.org/2000/svg" xmlns:xlink="http://www.w3.org/1999/xlink">
  <g>
    <path style="fill: #ffffff" d="M 160.12 104 L 233.572,104 C 242.754,111.6 245.692,115.4 245.692,123.001 C 245.692,130.601 242.754,134.401 233.572,142.001 L 160.12,142.001 C 150.938,134.401 148,130.601 148,123.001 C 148,115.4 150.938,111.6 160.12,104z"/>
    <path style="fill: none; fill-opacity:0; stroke-width: 2; stroke: #000000" d="M 160.12 104 L 233.572,104 C 242.754,111.6 245.692,115.4 245.692,123.001 C 245.692,130.601 242.754,134.401 233.572,142.001 L 160.12,142.001 C 150.938,134.401 148,130.601 148,123.001 C 148,115.4 150.938,111.6 160.12,104"/>
    <text font-size="12.8" style="fill: #000000;text-anchor:middle;font-family:sans-serif;font-style:normal;font-weight:normal" x="196.846" y="127.001">
      <tspan x="196.846" y="127.001">Stop</tspan>
    </text>
  </g>
  <g>
    <polygon style="fill: #ffffff" points="149.863,183.799 246.399,183.799 236.745,203.15 246.399,222.501 149.863,222.501 "/>
    <polygon style="fill: none; fill-opacity:0; stroke-width: 2; stroke: #000000" points="149.863,183.799 246.399,183.799 236.745,203.15 246.399,222.501 149.863,222.501 "/>
    <text font-size="12.8" style="fill: #000000;text-anchor:middle;font-family:sans-serif;font-style:normal;font-weight:normal" x="198.131" y="207.15">
      <tspan x="198.131" y="207.15">Timer(3)</tspan>
    </text>
  </g>
  <g>
    <path style="fill: #ffffff" d="M 161.911 343.396 L 233.826,343.396 C 242.815,351.396 245.692,355.396 245.692,363.396 C 245.692,371.396 242.815,375.396 233.826,383.396 L 161.911,383.396 C 152.921,375.396 150.045,371.396 150.045,363.396 C 150.045,355.396 152.921,351.396 161.911,343.396z"/>
    <path style="fill: none; fill-opacity:0; stroke-width: 2; stroke: #000000" d="M 161.911 343.396 L 233.826,343.396 C 242.815,351.396 245.692,355.396 245.692,363.396 C 245.692,371.396 242.815,375.396 233.826,383.396 L 161.911,383.396 C 152.921,375.396 150.045,371.396 150.045,363.396 C 150.045,355.396 152.921,351.396 161.911,343.396"/>
    <text font-size="12.8" style="fill: #000000;text-anchor:middle;font-family:sans-serif;font-style:normal;font-weight:normal" x="197.868" y="367.396">
      <tspan x="197.868" y="367.396">Drive</tspan>
    </text>
  </g>
  <g>
    <polygon style="fill: #ffffff" points="146.949,422.904 249.637,422.904 239.368,441.904 249.637,460.904 146.949,460.904 "/>
    <polygon style="fill: none; fill-opacity:0; stroke-width: 2; stroke: #000000" points="146.949,422.904 249.637,422.904 239.368,441.904 249.637,460.904 146.949,460.904 "/>
    <text font-size="12.8" style="fill: #000000;text-anchor:middle;font-family:sans-serif;font-style:normal;font-weight:normal" x="198.293" y="445.904">
      <tspan x="198.293" y="445.904">Intersection</tspan>
    </text>
  </g>
  <g>
    <polygon style="fill: #ffffff" points="148.586,502.41 239.486,502.41 249.586,523.41 239.486,544.41 148.586,544.41 "/>
    <polygon style="fill: none; fill-opacity:0; stroke-width: 2; stroke: #000000" points="148.586,502.41 239.486,502.41 249.586,523.41 239.486,544.41 148.586,544.41 "/>
    <text font-size="12.8" style="fill: #000000;text-anchor:middle;font-family:sans-serif;font-style:normal;font-weight:normal" x="199.086" y="527.41">
      <tspan x="199.086" y="527.41">Straighten</tspan>
    </text>
  </g>
  <g>
    <path style="fill: #ffffff" d="M 160.417 583.504 L 234.849,583.504 C 244.153,591.098 247.131,594.895 247.131,602.489 C 247.131,610.083 244.153,613.88 234.849,621.475 L 160.417,621.475 C 151.113,613.88 148.136,610.083 148.136,602.489 C 148.136,594.895 151.113,591.098 160.417,583.504z"/>
    <path style="fill: none; fill-opacity:0; stroke-width: 2; stroke: #000000" d="M 160.417 583.504 L 234.849,583.504 C 244.153,591.098 247.131,594.895 247.131,602.489 C 247.131,610.083 244.153,613.88 234.849,621.475 L 160.417,621.475 C 151.113,613.88 148.136,610.083 148.136,602.489 C 148.136,594.895 151.113,591.098 160.417,583.504"/>
    <text font-size="12.8" style="fill: #000000;text-anchor:middle;font-family:sans-serif;font-style:normal;font-weight:normal" x="197.633" y="606.489">
      <tspan x="197.633" y="606.489">WaitSign</tspan>
    </text>
  </g>
  <g>
    <polygon style="fill: #ffffff" points="9.9878,663.302 106.569,663.302 96.9105,682.339 106.569,701.377 9.9878,701.377 "/>
    <polygon style="fill: none; fill-opacity:0; stroke-width: 2; stroke: #000000" points="9.9878,663.302 106.569,663.302 96.9105,682.339 106.569,701.377 9.9878,701.377 "/>
    <text font-size="12.8" style="fill: #000000;text-anchor:middle;font-family:sans-serif;font-style:normal;font-weight:normal" x="58.2782" y="686.339">
      <tspan x="58.2782" y="686.339">GoSign</tspan>
    </text>
  </g>
  <g>
    <polygon style="fill: #ffffff" points="149.393,663.01 248.545,663.01 238.63,683.01 248.545,703.01 149.393,703.01 "/>
    <polygon style="fill: none; fill-opacity:0; stroke-width: 2; stroke: #000000" points="149.393,663.01 248.545,663.01 238.63,683.01 248.545,703.01 149.393,703.01 "/>
    <text font-size="12.8" style="fill: #000000;text-anchor:middle;font-family:sans-serif;font-style:normal;font-weight:normal" x="198.969" y="687.01">
      <tspan x="198.969" y="687.01">LeftSign</tspan>
    </text>
  </g>
  <g>
    <polygon style="fill: #ffffff" points="287.97,663.13 391.97,663.13 381.57,682.253 391.97,701.376 287.97,701.376 "/>
    <polygon style="fill: none; fill-opacity:0; stroke-width: 2; stroke: #000000" points="287.97,663.13 391.97,663.13 381.57,682.253 391.97,701.376 287.97,701.376 "/>
    <text font-size="12.8" style="fill: #000000;text-anchor:middle;font-family:sans-serif;font-style:normal;font-weight:normal" x="339.97" y="686.253">
      <tspan x="339.97" y="686.253">RightSign</tspan>
    </text>
  </g>
  <g>
    <polygon style="fill: #ffffff" points="2.4726,743.808 111.091,743.808 123.16,762.808 111.091,781.808 2.4726,781.808 "/>
    <polygon style="fill: none; fill-opacity:0; stroke-width: 2; stroke: #000000" points="2.4726,743.808 111.091,743.808 123.16,762.808 111.091,781.808 2.4726,781.808 "/>
    <text font-size="12.8" style="fill: #000000;text-anchor:middle;font-family:sans-serif;font-style:normal;font-weight:normal" x="62.8163" y="766.808">
      <tspan x="62.8163" y="766.808">FowardMotors</tspan>
    </text>
  </g>
  <g>
    <polygon style="fill: #ffffff" points="287.674,743.016 381.443,743.016 391.862,762.016 381.443,781.016 287.674,781.016 "/>
    <polygon style="fill: none; fill-opacity:0; stroke-width: 2; stroke: #000000" points="287.674,743.016 381.443,743.016 391.862,762.016 381.443,781.016 287.674,781.016 "/>
    <text font-size="12.8" style="fill: #000000;text-anchor:middle;font-family:sans-serif;font-style:normal;font-weight:normal" x="339.768" y="766.016">
      <tspan x="339.768" y="766.016">RightMotors</tspan>
    </text>
  </g>
  <g>
    <path style="fill: #ffffff" d="M 161.149 822.516 L 234.477,822.516 C 243.643,830.316 246.576,834.216 246.576,842.016 C 246.576,849.816 243.643,853.716 234.477,861.516 L 161.149,861.516 C 151.983,853.716 149.05,849.816 149.05,842.016 C 149.05,834.216 151.983,830.316 161.149,822.516z"/>
    <path style="fill: none; fill-opacity:0; stroke-width: 2; stroke: #000000" d="M 161.149 822.516 L 234.477,822.516 C 243.643,830.316 246.576,834.216 246.576,842.016 C 246.576,849.816 243.643,853.716 234.477,861.516 L 161.149,861.516 C 151.983,853.716 149.05,849.816 149.05,842.016 C 149.05,834.216 151.983,830.316 161.149,822.516"/>
    <text font-size="12.8" style="fill: #000000;text-anchor:middle;font-family:sans-serif;font-style:normal;font-weight:normal" x="197.813" y="846.016">
      <tspan x="197.813" y="846.016">Block</tspan>
    </text>
  </g>
  <g>
    <polygon style="fill: #ffffff" points="149.393,903.314 247.283,903.314 237.494,922.314 247.283,941.314 149.393,941.314 "/>
    <polygon style="fill: none; fill-opacity:0; stroke-width: 2; stroke: #000000" points="149.393,903.314 247.283,903.314 237.494,922.314 247.283,941.314 149.393,941.314 "/>
    <text font-size="12.8" style="fill: #000000;text-anchor:middle;font-family:sans-serif;font-style:normal;font-weight:normal" x="198.338" y="926.314">
      <tspan x="198.338" y="926.314">MotorDone</tspan>
    </text>
  </g>
  <g>
    <polygon style="fill: #ffffff" points="269.294,422.824 364.294,422.824 354.794,441.833 364.294,460.842 269.294,460.842 "/>
    <polygon style="fill: none; fill-opacity:0; stroke-width: 2; stroke: #000000" points="269.294,422.824 364.294,422.824 354.794,441.833 364.294,460.842 269.294,460.842 "/>
    <text font-size="12.8" style="fill: #000000;text-anchor:middle;font-family:sans-serif;font-style:normal;font-weight:normal" x="316.794" y="445.833">
      <tspan x="316.794" y="445.833">ParkSign</tspan>
    </text>
  </g>
  <g>
    <polygon style="fill: #ffffff" points="269.588,502.794 355.088,502.794 364.588,522.573 355.088,542.352 269.588,542.352 "/>
    <polygon style="fill: none; fill-opacity:0; stroke-width: 2; stroke: #000000" points="269.588,502.794 355.088,502.794 364.588,522.573 355.088,542.352 269.588,542.352 "/>
    <text font-size="12.8" style="fill: #000000;text-anchor:middle;font-family:sans-serif;font-style:normal;font-weight:normal" x="317.088" y="526.573">
      <tspan x="317.088" y="526.573">ParkCar</tspan>
    </text>
  </g>
  <g>
    <path style="fill: #ffffff" d="M 281.895 583.986 L 352.202,583.986 C 360.99,591.586 363.803,595.386 363.803,602.986 C 363.803,610.586 360.99,614.386 352.202,621.986 L 281.895,621.986 C 273.106,614.386 270.294,610.586 270.294,602.986 C 270.294,595.386 273.106,591.586 281.895,583.986z"/>
    <path style="fill: none; fill-opacity:0; stroke-width: 2; stroke: #000000" d="M 281.895 583.986 L 352.202,583.986 C 360.99,591.586 363.803,595.386 363.803,602.986 C 363.803,610.586 360.99,614.386 352.202,621.986 L 281.895,621.986 C 273.106,614.386 270.294,610.586 270.294,602.986 C 270.294,595.386 273.106,591.586 281.895,583.986"/>
    <text font-size="12.8" style="fill: #000000;text-anchor:middle;font-family:sans-serif;font-style:normal;font-weight:normal" x="317.048" y="606.986">
      <tspan x="317.048" y="606.986">Park</tspan>
    </text>
  </g>
  <g>
    <polygon style="fill: #ffffff" points="269.292,263.513 366.606,263.513 356.875,282.242 366.606,300.971 269.292,300.971 "/>
    <polygon style="fill: none; fill-opacity:0; stroke-width: 2; stroke: #000000" points="269.292,263.513 366.606,263.513 356.875,282.242 366.606,300.971 269.292,300.971 "/>
    <text font-size="12.8" style="fill: #000000;text-anchor:middle;font-family:sans-serif;font-style:normal;font-weight:normal" x="317.949" y="286.242">
      <tspan x="317.949" y="286.242">StopSign</tspan>
    </text>
  </g>
  <g>
    <polygon style="fill: #ffffff" points="270,183.799 356.4,183.799 366,202.799 356.4,221.799 270,221.799 "/>
    <polygon style="fill: none; fill-opacity:0; stroke-width: 2; stroke: #000000" points="270,183.799 356.4,183.799 366,202.799 356.4,221.799 270,221.799 "/>
    <text font-size="12.8" style="fill: #000000;text-anchor:middle;font-family:sans-serif;font-style:normal;font-weight:normal" x="318" y="206.799">
      <tspan x="318" y="206.799">StopMotor</tspan>
    </text>
  </g>
  <g>
    <path style="fill: none; fill-opacity:0; stroke-width: 2; stroke: #000000" d="M 318,183.799 A 68.4905,68.4905 0 0 0 247.207,122.68"/>
    <polyline style="fill: none; fill-opacity:0; stroke-width: 2; stroke: #000000" points="254.401,116.751 244.977,122.767 255.445,126.696 "/>
  </g>
  <g>
    <path style="fill: none; fill-opacity:0; stroke-width: 2; stroke: #000000" d="M 317.949,263.513 A 20.8756,20.8756 0 0 0 322.349,222.45"/>
    <polyline style="fill: none; fill-opacity:0; stroke-width: 2; stroke: #000000" points="330.44,217.332 320.234,221.896 330.009,227.322 "/>
  </g>
  <g>
    <path style="fill: none; fill-opacity:0; stroke-width: 2; stroke: #000000" d="M 196.846,142.001 A 20.9297,20.9297 0 0 0 193.764,183.277"/>
    <polyline style="fill: none; fill-opacity:0; stroke-width: 2; stroke: #000000" points="185.828,188.631 195.895,183.769 185.965,178.632 "/>
  </g>
  <g>
    <path style="fill: none; fill-opacity:0; stroke-width: 2; stroke: #000000" d="M 198.131,222.501 A 19.9112,19.9112 0 0 0 191.665,261.569"/>
    <polyline style="fill: none; fill-opacity:0; stroke-width: 2; stroke: #000000" points="183.533,266.66 193.766,262.156 184.024,256.672 "/>
  </g>
  <g>
    <path style="fill: none; fill-opacity:0; stroke-width: 2; stroke: #000000" d="M 196,300.45 A 21.5492,21.5492 0 0 0 193.504,342.822"/>
    <polyline style="fill: none; fill-opacity:0; stroke-width: 2; stroke: #000000" points="185.495,348.046 195.633,343.332 185.779,338.05 "/>
  </g>
  <g>
    <path style="fill: none; fill-opacity:0; stroke-width: 2; stroke: #000000" d="M 242.815,363.396 A 69.6378,69.6378 0 0 0 317.36,305.397"/>
    <polyline style="fill: none; fill-opacity:0; stroke-width: 2; stroke: #000000" points="321.7,313.645 317.725,303.195 311.75,312.645 "/>
  </g>
  <g>
    <path style="fill: none; fill-opacity:0; stroke-width: 2; stroke: #000000" d="M 242.815,363.396 A 66.2785,66.2785 0 0 0 312.347,423.214"/>
    <polyline style="fill: none; fill-opacity:0; stroke-width: 2; stroke: #000000" points="305.252,429.266 314.574,423.094 304.044,419.339 "/>
  </g>
  <g>
    <path style="fill: none; fill-opacity:0; stroke-width: 2; stroke: #000000" d="M 197.868,383.396 A 19.7566,19.7566 0 0 0 193.921,422.517"/>
    <polyline style="fill: none; fill-opacity:0; stroke-width: 2; stroke: #000000" points="186.175,428.185 196.057,422.956 185.945,418.187 "/>
  </g>
  <g>
    <path style="fill: none; fill-opacity:0; stroke-width: 2; stroke: #000000" d="M 316.794,460.842 A 21.0002,21.0002 0 0 0 312.736,502.156"/>
    <polyline style="fill: none; fill-opacity:0; stroke-width: 2; stroke: #000000" points="304.659,507.293 314.854,502.703 305.065,497.301 "/>
  </g>
  <g>
    <path style="fill: none; fill-opacity:0; stroke-width: 2; stroke: #000000" d="M 317.088,542.352 A 20.8336,20.8336 0 0 0 312.698,583.343"/>
    <polyline style="fill: none; fill-opacity:0; stroke-width: 2; stroke: #000000" points="304.618,588.481 314.814,583.894 305.027,578.489 "/>
  </g>
  <g>
    <path style="fill: none; fill-opacity:0; stroke-width: 2; stroke: #000000" d="M 198.293,460.904 A 20.7711,20.7711 0 0 0 194.723,501.866"/>
    <polyline style="fill: none; fill-opacity:0; stroke-width: 2; stroke: #000000" points="186.762,507.189 196.85,502.37 186.942,497.19 "/>
  </g>
  <g>
    <path style="fill: none; fill-opacity:0; stroke-width: 2; stroke: #000000" d="M 196.926,545.782 A 18.8966,18.8966 0 0 0 193.255,583.333"/>
    <polyline style="fill: none; fill-opacity:0; stroke-width: 2; stroke: #000000" points="185.819,589.432 195.404,583.676 185.048,579.462 "/>
  </g>
  <g>
    <path style="fill: none; fill-opacity:0; stroke-width: 2; stroke: #000000" d="M 197.633,621.475 A 142.309,142.309 0 0 0 61.3526,660.056"/>
    <polyline style="fill: none; fill-opacity:0; stroke-width: 2; stroke: #000000" points="62.8689,650.907 59.7902,661.655 70.2359,657.669 "/>
  </g>
  <g>
    <path style="fill: none; fill-opacity:0; stroke-width: 2; stroke: #000000" d="M 197.633,621.475 A 20.7936,20.7936 0 0 0 194.6,662.519"/>
    <polyline style="fill: none; fill-opacity:0; stroke-width: 2; stroke: #000000" points="186.703,667.936 196.733,662.997 186.763,657.936 "/>
  </g>
  <g>
    <path style="fill: none; fill-opacity:0; stroke-width: 2; stroke: #000000" d="M 197.633,621.475 A 147.468,147.468 0 0 0 335.614,664.136"/>
    <polyline style="fill: none; fill-opacity:0; stroke-width: 2; stroke: #000000" points="329.29,670.919 337.799,663.666 326.892,661.21 "/>
  </g>
  <g>
    <path style="fill: none; fill-opacity:0; stroke-width: 2; stroke: #000000" d="M 58.2782,701.377 A 21.3814,21.3814 0 0 0 58.4238,743.539"/>
    <polyline style="fill: none; fill-opacity:0; stroke-width: 2; stroke: #000000" points="50.8004,749.316 60.5822,743.902 50.3816,739.325 "/>
  </g>
  <g>
    <path style="fill: none; fill-opacity:0; stroke-width: 2; stroke: #000000" d="M 198.969,703.01 A 20.4957,20.4957 0 0 0 201.538,743.566"/>
    <polyline style="fill: none; fill-opacity:0; stroke-width: 2; stroke: #000000" points="194.554,750.126 203.717,743.72 193.094,740.233 "/>
  </g>
  <g>
    <path style="fill: none; fill-opacity:0; stroke-width: 2; stroke: #000000" d="M 339.97,701.376 A 20.837,20.837 0 0 0 335.421,742.356"/>
    <polyline style="fill: none; fill-opacity:0; stroke-width: 2; stroke: #000000" points="327.319,747.46 337.534,742.915 327.769,737.47 "/>
  </g>
  <g>
    <path style="fill: none; fill-opacity:0; stroke-width: 2; stroke: #000000" d="M 62.8163,781.808 A 134.258,134.258 0 0 0 193.474,823.593"/>
    <polyline style="fill: none; fill-opacity:0; stroke-width: 2; stroke: #000000" points="187.273,830.493 195.652,823.091 184.703,820.829 "/>
  </g>
  <g>
    <path style="fill: none; fill-opacity:0; stroke-width: 2; stroke: #000000" d="M 199.844,780.163 A 21.2368,21.2368 0 0 0 193.51,821.599"/>
    <polyline style="fill: none; fill-opacity:0; stroke-width: 2; stroke: #000000" points="185.116,826.191 195.589,822.279 186.176,816.247 "/>
  </g>
  <g>
    <path style="fill: none; fill-opacity:0; stroke-width: 2; stroke: #000000" d="M 339.768,781.016 A 146.709,146.709 0 0 0 200.936,819.317"/>
    <polyline style="fill: none; fill-opacity:0; stroke-width: 2; stroke: #000000" points="202.595,810.193 199.35,820.892 209.856,817.069 "/>
  </g>
  <g>
    <path style="fill: none; fill-opacity:0; stroke-width: 2; stroke: #000000" d="M 197.813,861.516 A 20.9209,20.9209 0 0 0 193.981,902.714"/>
    <polyline style="fill: none; fill-opacity:0; stroke-width: 2; stroke: #000000" points="185.951,907.927 196.103,903.244 186.265,897.931 "/>
  </g>
  <g>
    <path style="fill: none; fill-opacity:0; stroke-width: 2; stroke: #000000" d="M 198.338,941.314 A 322.286,322.286 0 1 0 200.447,299.986"/>
    <polyline style="fill: none; fill-opacity:0; stroke-width: 2; stroke: #000000" points="207.607,294.126 198.222,300.202 208.714,304.065 "/>
  </g>
  <g>
    <path style="fill: #ffffff" d="M 161.02 24.8131 L 234.472,24.8131 C 243.654,32.4133 246.592,36.2133 246.592,43.8134 C 246.592,51.4136 243.654,55.2136 234.472,62.8137 L 161.02,62.8137 C 151.838,55.2136 148.9,51.4136 148.9,43.8134 C 148.9,36.2133 151.838,32.4133 161.02,24.8131z"/>
    <path style="fill: none; fill-opacity:0; stroke-width: 2; stroke: #000000" d="M 161.02 24.8131 L 234.472,24.8131 C 243.654,32.4133 246.592,36.2133 246.592,43.8134 C 246.592,51.4136 243.654,55.2136 234.472,62.8137 L 161.02,62.8137 C 151.838,55.2136 148.9,51.4136 148.9,43.8134 C 148.9,36.2133 151.838,32.4133 161.02,24.8131"/>
    <text font-size="12.8" style="fill: #000000;text-anchor:middle;font-family:sans-serif;font-style:normal;font-weight:normal" x="197.746" y="47.8134">
      <tspan x="197.746" y="47.8134">Start</tspan>
    </text>
  </g>
  <g>
    <path style="fill: none; fill-opacity:0; stroke-width: 2; stroke: #000000" d="M 202,63.9131 A 20.2096,20.2096 0 0 0 192.587,102.926"/>
    <polyline style="fill: none; fill-opacity:0; stroke-width: 2; stroke: #000000" points="184.038,107.266 194.631,103.692 185.416,97.3617 "/>
  </g>
  <g>
    <polygon style="fill: #ffffff" points="140.687,743.163 247.169,743.163 259,761.663 247.169,780.163 140.687,780.163 "/>
    <polygon style="fill: none; fill-opacity:0; stroke-width: 2; stroke: #000000" points="140.687,743.163 247.169,743.163 259,761.663 247.169,780.163 140.687,780.163 "/>
    <text font-size="12.7998" style="fill: #000000;text-anchor:middle;font-family:sans-serif;font-style:normal;font-weight:normal" x="199.844" y="765.663">
      <tspan x="199.844" y="765.663">ForLeftMotors</tspan>
    </text>
  </g>
  <g>
    <polygon style="fill: #ffffff" points="150.187,262.266 232.65,262.266 241.812,281.358 232.65,300.45 150.187,300.45 "/>
    <polygon style="fill: none; fill-opacity:0; stroke-width: 2; stroke: #000000" points="150.187,262.266 232.65,262.266 241.812,281.358 232.65,300.45 150.187,300.45 "/>
    <text font-size="12.7998" style="fill: #000000;text-anchor:middle;font-family:sans-serif;font-style:normal;font-weight:normal" x="196" y="285.358">
      <tspan x="196" y="285.358">LineFollow</tspan>
    </text>
  </g>
</svg>
