<?xml version="1.0" encoding="UTF-8" standalone="no"?>
<!DOCTYPE svg PUBLIC "-//W3C//DTD SVG 1.0//EN" "http://www.w3.org/TR/2001/PR-SVG-20010719/DTD/svg10.dtd">
<svg width="42cm" height="53cm" viewBox="3 23 827 1049" xmlns="http://www.w3.org/2000/svg" xmlns:xlink="http://www.w3.org/1999/xlink">
  <g>
    <path style="fill: #ffffff" d="M 160.12 104 L 233.572,104 C 242.754,111.6 245.692,115.4 245.692,123 C 245.692,130.601 242.754,134.401 233.572,142.001 L 160.12,142.001 C 150.938,134.401 148,130.601 148,123 C 148,115.4 150.938,111.6 160.12,104z"/>
    <path style="fill: none; fill-opacity:0; stroke-width: 2; stroke: #000000" d="M 160.12 104 L 233.572,104 C 242.754,111.6 245.692,115.4 245.692,123 C 245.692,130.601 242.754,134.401 233.572,142.001 L 160.12,142.001 C 150.938,134.401 148,130.601 148,123 C 148,115.4 150.938,111.6 160.12,104"/>
    <text font-size="12.8" style="fill: #000000;text-anchor:middle;font-family:sans-serif;font-style:normal;font-weight:normal" x="196.846" y="127">
      <tspan x="196.846" y="127">Stop</tspan>
    </text>
  </g>
  <g>
    <polygon style="fill: #ffffff" points="149.863,183.799 246.399,183.799 236.745,203.15 246.399,222.501 149.863,222.501 "/>
    <polygon style="fill: none; fill-opacity:0; stroke-width: 2; stroke: #000000" points="149.863,183.799 246.399,183.799 236.745,203.15 246.399,222.501 149.863,222.501 "/>
    <text font-size="12.8" style="fill: #000000;text-anchor:middle;font-family:sans-serif;font-style:normal;font-weight:normal" x="198.131" y="207.15">
      <tspan x="198.131" y="207.15">Timer(3)</tspan>
    </text>
  </g>
  <g>
    <path style="fill: #ffffff" d="M 161.911 343.396 L 233.826,343.396 C 242.815,351.396 245.692,355.396 245.692,363.396 C 245.692,371.396 242.815,375.396 233.826,383.396 L 161.911,383.396 C 152.921,375.396 150.045,371.396 150.045,363.396 C 150.045,355.396 152.921,351.396 161.911,343.396z"/>
    <path style="fill: none; fill-opacity:0; stroke-width: 2; stroke: #000000" d="M 161.911 343.396 L 233.826,343.396 C 242.815,351.396 245.692,355.396 245.692,363.396 C 245.692,371.396 242.815,375.396 233.826,383.396 L 161.911,383.396 C 152.921,375.396 150.045,371.396 150.045,363.396 C 150.045,355.396 152.921,351.396 161.911,343.396"/>
    <text font-size="12.8" style="fill: #000000;text-anchor:middle;font-family:sans-serif;font-style:normal;font-weight:normal" x="197.868" y="367.396">
      <tspan x="197.868" y="367.396">Drive</tspan>
    </text>
  </g>
  <g>
    <polygon style="fill: #ffffff" points="146.949,422.904 249.637,422.904 239.368,441.904 249.637,460.904 146.949,460.904 "/>
    <polygon style="fill: none; fill-opacity:0; stroke-width: 2; stroke: #000000" points="146.949,422.904 249.637,422.904 239.368,441.904 249.637,460.904 146.949,460.904 "/>
    <text font-size="12.8" style="fill: #000000;text-anchor:middle;font-family:sans-serif;font-style:normal;font-weight:normal" x="198.293" y="445.904">
      <tspan x="198.293" y="445.904">Intersection</tspan>
    </text>
  </g>
  <g>
    <polygon style="fill: #ffffff" points="148.586,502.41 239.486,502.41 249.586,523.41 239.486,544.41 148.586,544.41 "/>
    <polygon style="fill: none; fill-opacity:0; stroke-width: 2; stroke: #000000" points="148.586,502.41 239.486,502.41 249.586,523.41 239.486,544.41 148.586,544.41 "/>
    <text font-size="12.8" style="fill: #000000;text-anchor:middle;font-family:sans-serif;font-style:normal;font-weight:normal" x="199.086" y="527.41">
      <tspan x="199.086" y="527.41">Straighten</tspan>
    </text>
  </g>
  <g>
    <path style="fill: #ffffff" d="M 160.417 583.504 L 234.849,583.504 C 244.153,591.098 247.131,594.895 247.131,602.489 C 247.131,610.083 244.153,613.88 234.849,621.475 L 160.417,621.475 C 151.113,613.88 148.136,610.083 148.136,602.489 C 148.136,594.895 151.113,591.098 160.417,583.504z"/>
    <path style="fill: none; fill-opacity:0; stroke-width: 2; stroke: #000000" d="M 160.417 583.504 L 234.849,583.504 C 244.153,591.098 247.131,594.895 247.131,602.489 C 247.131,610.083 244.153,613.88 234.849,621.475 L 160.417,621.475 C 151.113,613.88 148.136,610.083 148.136,602.489 C 148.136,594.895 151.113,591.098 160.417,583.504"/>
    <text font-size="12.8" style="fill: #000000;text-anchor:middle;font-family:sans-serif;font-style:normal;font-weight:normal" x="197.633" y="606.489">
      <tspan x="197.633" y="606.489">WaitSign</tspan>
    </text>
  </g>
  <g>
    <polygon style="fill: #ffffff" points="7.9878,702.302 104.569,702.302 94.9105,721.339 104.569,740.377 7.9878,740.377 "/>
    <polygon style="fill: none; fill-opacity:0; stroke-width: 2; stroke: #000000" points="7.9878,702.302 104.569,702.302 94.9105,721.339 104.569,740.377 7.9878,740.377 "/>
    <text font-size="12.8" style="fill: #000000;text-anchor:middle;font-family:sans-serif;font-style:normal;font-weight:normal" x="56.2782" y="725.339">
      <tspan x="56.2782" y="725.339">GoSign</tspan>
    </text>
  </g>
  <g>
    <polygon style="fill: #ffffff" points="150.393,696.01 249.545,696.01 239.63,716.01 249.545,736.01 150.393,736.01 "/>
    <polygon style="fill: none; fill-opacity:0; stroke-width: 2; stroke: #000000" points="150.393,696.01 249.545,696.01 239.63,716.01 249.545,736.01 150.393,736.01 "/>
    <text font-size="12.8" style="fill: #000000;text-anchor:middle;font-family:sans-serif;font-style:normal;font-weight:normal" x="199.969" y="720.01">
      <tspan x="199.969" y="720.01">LeftSign</tspan>
    </text>
  </g>
  <g>
    <polygon style="fill: #ffffff" points="276.97,696.13 380.97,696.13 370.57,715.253 380.97,734.376 276.97,734.376 "/>
    <polygon style="fill: none; fill-opacity:0; stroke-width: 2; stroke: #000000" points="276.97,696.13 380.97,696.13 370.57,715.253 380.97,734.376 276.97,734.376 "/>
    <text font-size="12.8" style="fill: #000000;text-anchor:middle;font-family:sans-serif;font-style:normal;font-weight:normal" x="328.97" y="719.253">
      <tspan x="328.97" y="719.253">RightSign</tspan>
    </text>
  </g>
  <g>
    <polygon style="fill: #ffffff" points="4.4726,791.808 113.091,791.808 125.16,810.808 113.091,829.808 4.4726,829.808 "/>
    <polygon style="fill: none; fill-opacity:0; stroke-width: 2; stroke: #000000" points="4.4726,791.808 113.091,791.808 125.16,810.808 113.091,829.808 4.4726,829.808 "/>
    <text font-size="12.8" style="fill: #000000;text-anchor:middle;font-family:sans-serif;font-style:normal;font-weight:normal" x="64.8164" y="814.808">
      <tspan x="64.8164" y="814.808">FowardMotors</tspan>
    </text>
  </g>
  <g>
    <polygon style="fill: #ffffff" points="280.674,791.016 374.443,791.016 384.861,810.016 374.443,829.016 280.674,829.016 "/>
    <polygon style="fill: none; fill-opacity:0; stroke-width: 2; stroke: #000000" points="280.674,791.016 374.443,791.016 384.861,810.016 374.443,829.016 280.674,829.016 "/>
    <text font-size="12.8" style="fill: #000000;text-anchor:middle;font-family:sans-serif;font-style:normal;font-weight:normal" x="332.768" y="814.016">
      <tspan x="332.768" y="814.016">RightMotors</tspan>
    </text>
  </g>
  <g>
    <path style="fill: #ffffff" d="M 157.149 899.516 L 230.477,899.516 C 239.643,907.316 242.576,911.216 242.576,919.016 C 242.576,926.816 239.643,930.716 230.477,938.516 L 157.149,938.516 C 147.983,930.716 145.05,926.816 145.05,919.016 C 145.05,911.216 147.983,907.316 157.149,899.516z"/>
    <path style="fill: none; fill-opacity:0; stroke-width: 2; stroke: #000000" d="M 157.149 899.516 L 230.477,899.516 C 239.643,907.316 242.576,911.216 242.576,919.016 C 242.576,926.816 239.643,930.716 230.477,938.516 L 157.149,938.516 C 147.983,930.716 145.05,926.816 145.05,919.016 C 145.05,911.216 147.983,907.316 157.149,899.516"/>
    <text font-size="12.8" style="fill: #000000;text-anchor:middle;font-family:sans-serif;font-style:normal;font-weight:normal" x="193.813" y="923.016">
      <tspan x="193.813" y="923.016">Block</tspan>
    </text>
  </g>
  <g>
    <polygon style="fill: #ffffff" points="153.393,998.314 251.283,998.314 241.494,1017.31 251.283,1036.31 153.393,1036.31 "/>
    <polygon style="fill: none; fill-opacity:0; stroke-width: 2; stroke: #000000" points="153.393,998.314 251.283,998.314 241.494,1017.31 251.283,1036.31 153.393,1036.31 "/>
    <text font-size="12.8" style="fill: #000000;text-anchor:middle;font-family:sans-serif;font-style:normal;font-weight:normal" x="202.338" y="1021.31">
      <tspan x="202.338" y="1021.31">MotorDone</tspan>
    </text>
  </g>
  <g>
    <polygon style="fill: #ffffff" points="312.294,468.824 407.294,468.824 397.794,487.833 407.294,506.842 312.294,506.842 "/>
    <polygon style="fill: none; fill-opacity:0; stroke-width: 2; stroke: #000000" points="312.294,468.824 407.294,468.824 397.794,487.833 407.294,506.842 312.294,506.842 "/>
    <text font-size="12.8" style="fill: #000000;text-anchor:middle;font-family:sans-serif;font-style:normal;font-weight:normal" x="359.794" y="491.833">
      <tspan x="359.794" y="491.833">ParkSign</tspan>
    </text>
  </g>
  <g>
    <polygon style="fill: #ffffff" points="464.588,668.794 550.088,668.794 559.588,688.573 550.088,708.352 464.588,708.352 "/>
    <polygon style="fill: none; fill-opacity:0; stroke-width: 2; stroke: #000000" points="464.588,668.794 550.088,668.794 559.588,688.573 550.088,708.352 464.588,708.352 "/>
    <text font-size="12.8" style="fill: #000000;text-anchor:middle;font-family:sans-serif;font-style:normal;font-weight:normal" x="512.088" y="692.573">
      <tspan x="512.088" y="692.573">ParkCar</tspan>
    </text>
  </g>
  <g>
    <path style="fill: #ffffff" d="M 474.895 775.986 L 545.202,775.986 C 553.99,783.586 556.803,787.386 556.803,794.986 C 556.803,802.586 553.99,806.386 545.202,813.986 L 474.895,813.986 C 466.106,806.386 463.294,802.586 463.294,794.986 C 463.294,787.386 466.106,783.586 474.895,775.986z"/>
    <path style="fill: none; fill-opacity:0; stroke-width: 2; stroke: #000000" d="M 474.895 775.986 L 545.202,775.986 C 553.99,783.586 556.803,787.386 556.803,794.986 C 556.803,802.586 553.99,806.386 545.202,813.986 L 474.895,813.986 C 466.106,806.386 463.294,802.586 463.294,794.986 C 463.294,787.386 466.106,783.586 474.895,775.986"/>
    <text font-size="12.8" style="fill: #000000;text-anchor:middle;font-family:sans-serif;font-style:normal;font-weight:normal" x="510.048" y="798.986">
      <tspan x="510.048" y="798.986">Park</tspan>
    </text>
  </g>
  <g>
    <polygon style="fill: #ffffff" points="269.292,263.514 366.606,263.514 356.875,282.243 366.606,300.971 269.292,300.971 "/>
    <polygon style="fill: none; fill-opacity:0; stroke-width: 2; stroke: #000000" points="269.292,263.514 366.606,263.514 356.875,282.243 366.606,300.971 269.292,300.971 "/>
    <text font-size="12.8" style="fill: #000000;text-anchor:middle;font-family:sans-serif;font-style:normal;font-weight:normal" x="317.949" y="286.243">
      <tspan x="317.949" y="286.243">StopSign</tspan>
    </text>
  </g>
  <g>
    <polygon style="fill: #ffffff" points="270,183.799 356.4,183.799 366,202.799 356.4,221.799 270,221.799 "/>
    <polygon style="fill: none; fill-opacity:0; stroke-width: 2; stroke: #000000" points="270,183.799 356.4,183.799 366,202.799 356.4,221.799 270,221.799 "/>
    <text font-size="12.8" style="fill: #000000;text-anchor:middle;font-family:sans-serif;font-style:normal;font-weight:normal" x="318" y="206.799">
      <tspan x="318" y="206.799">StopMotor</tspan>
    </text>
  </g>
  <g>
    <path style="fill: none; fill-opacity:0; stroke-width: 2; stroke: #000000" d="M 318,183.799 A 68.49,68.49 0 0 0 247.207,122.68"/>
    <polyline style="fill: none; fill-opacity:0; stroke-width: 2; stroke: #000000" points="254.401,116.751 244.978,122.767 255.445,126.696 "/>
  </g>
  <g>
    <path style="fill: none; fill-opacity:0; stroke-width: 2; stroke: #000000" d="M 317.95,263.514 A 20.8754,20.8754 0 0 0 322.349,222.451"/>
    <polyline style="fill: none; fill-opacity:0; stroke-width: 2; stroke: #000000" points="330.44,217.332 320.234,221.896 330.009,227.323 "/>
  </g>
  <g>
    <path style="fill: none; fill-opacity:0; stroke-width: 2; stroke: #000000" d="M 196.846,142.001 A 20.9297,20.9297 0 0 0 193.765,183.277"/>
    <polyline style="fill: none; fill-opacity:0; stroke-width: 2; stroke: #000000" points="185.828,188.631 195.895,183.769 185.965,178.632 "/>
  </g>
  <g>
    <path style="fill: none; fill-opacity:0; stroke-width: 2; stroke: #000000" d="M 198.131,222.502 A 19.9107,19.9107 0 0 0 191.665,261.569"/>
    <polyline style="fill: none; fill-opacity:0; stroke-width: 2; stroke: #000000" points="183.533,266.66 193.766,262.156 184.024,256.672 "/>
  </g>
  <g>
    <path style="fill: none; fill-opacity:0; stroke-width: 2; stroke: #000000" d="M 196,300.45 A 21.5491,21.5491 0 0 0 193.504,342.822"/>
    <polyline style="fill: none; fill-opacity:0; stroke-width: 2; stroke: #000000" points="185.495,348.046 195.633,343.332 185.779,338.05 "/>
  </g>
  <g>
    <path style="fill: none; fill-opacity:0; stroke-width: 2; stroke: #000000" d="M 242.816,363.396 A 69.6383,69.6383 0 0 0 317.361,305.396"/>
    <polyline style="fill: none; fill-opacity:0; stroke-width: 2; stroke: #000000" points="321.701,313.645 317.726,303.195 311.751,312.644 "/>
  </g>
  <g>
    <path style="fill: none; fill-opacity:0; stroke-width: 2; stroke: #000000" d="M 242.816,363.396 A 164.993,164.993 0 0 0 355.462,467.72"/>
    <polyline style="fill: none; fill-opacity:0; stroke-width: 2; stroke: #000000" points="346.728,470.824 357.62,468.301 349.066,461.101 "/>
  </g>
  <g>
    <path style="fill: none; fill-opacity:0; stroke-width: 2; stroke: #000000" d="M 197.868,383.396 A 19.7566,19.7566 0 0 0 193.921,422.517"/>
    <polyline style="fill: none; fill-opacity:0; stroke-width: 2; stroke: #000000" points="186.175,428.185 196.057,422.956 185.945,418.188 "/>
  </g>
  <g>
    <path style="fill: none; fill-opacity:0; stroke-width: 2; stroke: #000000" d="M 359.794,506.842 A 233.366,233.366 0 0 0 529.737,504.168"/>
    <polyline style="fill: none; fill-opacity:0; stroke-width: 2; stroke: #000000" points="524.607,511.876 531.806,503.321 520.643,502.695 "/>
  </g>
  <g>
    <path style="fill: none; fill-opacity:0; stroke-width: 2; stroke: #000000" d="M 512.088,708.352 A 38.6157,38.6157 0 0 0 506.353,773.507"/>
    <polyline style="fill: none; fill-opacity:0; stroke-width: 2; stroke: #000000" points="496.969,774.073 508.123,774.849 502.052,765.461 "/>
  </g>
  <g>
    <path style="fill: none; fill-opacity:0; stroke-width: 2; stroke: #000000" d="M 198.293,460.904 A 20.7711,20.7711 0 0 0 194.723,501.866"/>
    <polyline style="fill: none; fill-opacity:0; stroke-width: 2; stroke: #000000" points="186.762,507.189 196.85,502.37 186.942,497.19 "/>
  </g>
  <g>
    <path style="fill: none; fill-opacity:0; stroke-width: 2; stroke: #000000" d="M 196.926,545.782 A 18.8966,18.8966 0 0 0 193.255,583.333"/>
    <polyline style="fill: none; fill-opacity:0; stroke-width: 2; stroke: #000000" points="185.819,589.432 195.404,583.676 185.048,579.462 "/>
  </g>
  <g>
    <path style="fill: none; fill-opacity:0; stroke-width: 2; stroke: #000000" d="M 197.633,621.474 A 175.715,175.715 0 0 0 58.7371,698.568"/>
    <polyline style="fill: none; fill-opacity:0; stroke-width: 2; stroke: #000000" points="58.6664,689.301 57.4841,700.419 67.0876,694.694 "/>
  </g>
  <g>
    <path style="fill: none; fill-opacity:0; stroke-width: 2; stroke: #000000" d="M 197.633,621.474 A 44.7567,44.7567 0 0 0 196.304,693.477"/>
    <polyline style="fill: none; fill-opacity:0; stroke-width: 2; stroke: #000000" points="186.935,693.814 198.069,694.832 192.202,685.314 "/>
  </g>
  <g>
    <path style="fill: none; fill-opacity:0; stroke-width: 2; stroke: #000000" d="M 197.633,621.474 A 152.643,152.643 0 0 0 324.5,696.068"/>
    <polyline style="fill: none; fill-opacity:0; stroke-width: 2; stroke: #000000" points="316.738,701.14 326.734,696.132 316.73,691.14 "/>
  </g>
  <g>
    <path style="fill: none; fill-opacity:0; stroke-width: 2; stroke: #000000" d="M 56.2782,740.377 A 26.988,26.988 0 0 0 60.4606,791.018"/>
    <polyline style="fill: none; fill-opacity:0; stroke-width: 2; stroke: #000000" points="52.152,795.594 62.5909,791.591 53.1245,785.642 "/>
  </g>
  <g>
    <path style="fill: none; fill-opacity:0; stroke-width: 2; stroke: #000000" d="M 199.969,736.01 A 44.8937,44.8937 0 0 0 180.182,786.953"/>
    <polyline style="fill: none; fill-opacity:0; stroke-width: 2; stroke: #000000" points="172.428,781.684 180.805,789.089 181.703,777.945 "/>
  </g>
  <g>
    <path style="fill: none; fill-opacity:0; stroke-width: 2; stroke: #000000" d="M 328.97,734.376 A 30.1406,30.1406 0 0 0 328.601,789.496"/>
    <polyline style="fill: none; fill-opacity:0; stroke-width: 2; stroke: #000000" points="319.632,792.49 330.616,790.406 322.359,782.869 "/>
  </g>
  <g>
    <path style="fill: none; fill-opacity:0; stroke-width: 2; stroke: #000000" d="M 64.8164,829.808 A 144.371,144.371 0 0 0 189.343,899.613"/>
    <polyline style="fill: none; fill-opacity:0; stroke-width: 2; stroke: #000000" points="181.771,904.968 191.578,899.599 181.399,894.975 "/>
  </g>
  <g>
    <path style="fill: none; fill-opacity:0; stroke-width: 2; stroke: #000000" d="M 196.844,829.164 A 40.9912,40.9912 0 0 0 190.228,896.875"/>
    <polyline style="fill: none; fill-opacity:0; stroke-width: 2; stroke: #000000" points="180.839,896.984 191.943,898.289 186.325,888.623 "/>
  </g>
  <g>
    <path style="fill: none; fill-opacity:0; stroke-width: 2; stroke: #000000" d="M 332.768,829.016 A 161.742,161.742 0 0 0 196.383,895.858"/>
    <polyline style="fill: none; fill-opacity:0; stroke-width: 2; stroke: #000000" points="196.579,886.59 195.073,897.669 204.839,892.226 "/>
  </g>
  <g>
    <path style="fill: none; fill-opacity:0; stroke-width: 2; stroke: #000000" d="M 193.813,938.516 A 32.803,32.803 0 0 0 198.132,996.887"/>
    <polyline style="fill: none; fill-opacity:0; stroke-width: 2; stroke: #000000" points="189.229,1000.01 200.177,997.741 191.793,990.343 "/>
  </g>
  <g>
    <path style="fill: none; fill-opacity:0; stroke-width: 2; stroke: #000000" d="M 243.024,1037.31 A 421.13,421.13 0 1 0 196.701,285.734"/>
    <polyline style="fill: none; fill-opacity:0; stroke-width: 2; stroke: #000000" points="200.805,277.447 194.768,286.857 205.918,286.041 "/>
  </g>
  <g>
    <path style="fill: #ffffff" d="M 161.02 24.8132 L 234.472,24.8132 C 243.654,32.4133 246.592,36.2134 246.592,43.8135 C 246.592,51.4136 243.654,55.2137 234.472,62.8138 L 161.02,62.8138 C 151.838,55.2137 148.9,51.4136 148.9,43.8135 C 148.9,36.2134 151.838,32.4133 161.02,24.8132z"/>
    <path style="fill: none; fill-opacity:0; stroke-width: 2; stroke: #000000" d="M 161.02 24.8132 L 234.472,24.8132 C 243.654,32.4133 246.592,36.2134 246.592,43.8135 C 246.592,51.4136 243.654,55.2137 234.472,62.8138 L 161.02,62.8138 C 151.838,55.2137 148.9,51.4136 148.9,43.8135 C 148.9,36.2134 151.838,32.4133 161.02,24.8132"/>
    <text font-size="12.8" style="fill: #000000;text-anchor:middle;font-family:sans-serif;font-style:normal;font-weight:normal" x="197.746" y="47.8135">
      <tspan x="197.746" y="47.8135">Start</tspan>
    </text>
  </g>
  <g>
    <path style="fill: none; fill-opacity:0; stroke-width: 2; stroke: #000000" d="M 202,63.9132 A 20.2096,20.2096 0 0 0 192.587,102.926"/>
    <polyline style="fill: none; fill-opacity:0; stroke-width: 2; stroke: #000000" points="184.037,107.266 194.631,103.692 185.415,97.3617 "/>
  </g>
  <g>
    <polygon style="fill: #ffffff" points="137.687,792.164 244.169,792.164 256,810.664 244.169,829.164 137.687,829.164 "/>
    <polygon style="fill: none; fill-opacity:0; stroke-width: 2; stroke: #000000" points="137.687,792.164 244.169,792.164 256,810.664 244.169,829.164 137.687,829.164 "/>
    <text font-size="12.8" style="fill: #000000;text-anchor:middle;font-family:sans-serif;font-style:normal;font-weight:normal" x="196.844" y="814.664">
      <tspan x="196.844" y="814.664">ForLeftMotors</tspan>
    </text>
  </g>
  <g>
    <polygon style="fill: #ffffff" points="150.187,262.266 232.65,262.266 241.812,281.358 232.65,300.45 150.187,300.45 "/>
    <polygon style="fill: none; fill-opacity:0; stroke-width: 2; stroke: #000000" points="150.187,262.266 232.65,262.266 241.812,281.358 232.65,300.45 150.187,300.45 "/>
    <text font-size="12.8" style="fill: #000000;text-anchor:middle;font-family:sans-serif;font-style:normal;font-weight:normal" x="196" y="285.358">
      <tspan x="196" y="285.358">LineFollow</tspan>
    </text>
  </g>
  <g>
    <polygon style="fill: #ffffff" points="548.5,473.5 568,495.5 548.5,517.5 529,495.5 "/>
    <polygon style="fill: none; fill-opacity:0; stroke-width: 2; stroke: #000000" points="548.5,473.5 568,495.5 548.5,517.5 529,495.5 "/>
    <text font-size="12.7998" style="fill: #000000;text-anchor:middle;font-family:sans-serif;font-style:normal;font-weight:normal" x="548.89" y="499.94">
      <tspan x="548.89" y="499.94"></tspan>
    </text>
  </g>
  <g>
    <polygon style="fill: #ffffff" points="462.875,564 570.125,564 559.4,583 570.125,602 462.875,602 "/>
    <polygon style="fill: none; fill-opacity:0; stroke-width: 2; stroke: #000000" points="462.875,564 570.125,564 559.4,583 570.125,602 462.875,602 "/>
    <text font-size="12.7998" style="fill: #000000;text-anchor:middle;font-family:sans-serif;font-style:normal;font-weight:normal" x="516.5" y="587">
      <tspan x="516.5" y="587">True: GasFill</tspan>
    </text>
  </g>
  <g>
    <polygon style="fill: #ffffff" points="643.719,566.214 756.281,566.214 745.025,587.357 756.281,608.5 643.719,608.5 "/>
    <polygon style="fill: none; fill-opacity:0; stroke-width: 2; stroke: #000000" points="643.719,566.214 756.281,566.214 745.025,587.357 756.281,608.5 643.719,608.5 "/>
    <text font-size="12.7998" style="fill: #000000;text-anchor:middle;font-family:sans-serif;font-style:normal;font-weight:normal" x="700" y="591.357">
      <tspan x="700" y="591.357">False: GasFill</tspan>
    </text>
  </g>
  <g>
    <path style="fill: none; fill-opacity:0; stroke-width: 2; stroke: #000000" d="M 534.837,503.559 A 64.2516,64.2516 0 0 0 509.817,553.379"/>
    <polygon style="fill: #000000" points="510.084,560.8 503.795,551.556 509.083,553.367 513.705,550.223 "/>
    <polygon style="fill: none; fill-opacity:0; stroke-width: 2; stroke: #000000" points="510.084,560.8 503.795,551.556 509.083,553.367 513.705,550.223 "/>
  </g>
  <g>
    <path style="fill: none; fill-opacity:0; stroke-width: 2; stroke: #000000" d="M 557.777,508.484 A 206.187,206.187 0 0 0 633.796,569.16"/>
    <polygon style="fill: #000000" points="640.64,572.208 629.492,573.049 633.699,569.368 633.278,563.794 "/>
    <polygon style="fill: none; fill-opacity:0; stroke-width: 2; stroke: #000000" points="640.64,572.208 629.492,573.049 633.699,569.368 633.278,563.794 "/>
  </g>
  <g>
    <path style="fill: none; fill-opacity:0; stroke-width: 2; stroke: #000000" d="M 502.479,602.976 A 79.7821,79.7821 0 0 0 496.876,658.616"/>
    <polygon style="fill: #000000" points="499.08,665.734 490.734,658.295 496.304,658.767 500.024,654.594 "/>
    <polygon style="fill: none; fill-opacity:0; stroke-width: 2; stroke: #000000" points="499.08,665.734 490.734,658.295 496.304,658.767 500.024,654.594 "/>
  </g>
  <g>
    <polygon style="fill: #ffffff" points="655,646.214 742.3,646.214 752,666.214 742.3,686.214 655,686.214 "/>
    <polygon style="fill: none; fill-opacity:0; stroke-width: 2; stroke: #000000" points="655,646.214 742.3,646.214 752,666.214 742.3,686.214 655,686.214 "/>
    <text font-size="12.7998" style="fill: #000000;text-anchor:middle;font-family:sans-serif;font-style:normal;font-weight:normal" x="703.5" y="670.214">
      <tspan x="703.5" y="670.214">PumpGas</tspan>
    </text>
  </g>
  <g>
    <path style="fill: none; fill-opacity:0; stroke-width: 2; stroke: #000000" d="M 682.421,609.499 A 31.7275,31.7275 0 0 0 695.101,641.968"/>
    <polygon style="fill: #000000" points="701.377,645.512 690.313,647.121 694.256,643.159 693.451,637.627 "/>
    <polygon style="fill: none; fill-opacity:0; stroke-width: 2; stroke: #000000" points="701.377,645.512 690.313,647.121 694.256,643.159 693.451,637.627 "/>
  </g>
  <g>
    <path style="fill: #ffffff" d="M 659.902 717.214 L 738.098,717.214 C 747.872,726.214 751,730.714 751,739.714 C 751,748.714 747.872,753.214 738.098,762.214 L 659.902,762.214 C 650.128,753.214 647,748.714 647,739.714 C 647,730.714 650.128,726.214 659.902,717.214z"/>
    <path style="fill: none; fill-opacity:0; stroke-width: 2; stroke: #000000" d="M 659.902 717.214 L 738.098,717.214 C 747.872,726.214 751,730.714 751,739.714 C 751,748.714 747.872,753.214 738.098,762.214 L 659.902,762.214 C 650.128,753.214 647,748.714 647,739.714 C 647,730.714 650.128,726.214 659.902,717.214"/>
    <text font-size="12.7998" style="fill: #000000;text-anchor:middle;font-family:sans-serif;font-style:normal;font-weight:normal" x="699" y="743.714">
      <tspan x="699" y="743.714">GasStation</tspan>
    </text>
  </g>
  <g>
    <path style="fill: none; fill-opacity:0; stroke-width: 2; stroke: #000000" d="M 703.5,686.214 A 28.0156,28.0156 0 0 0 682.041,706.912"/>
    <polygon style="fill: #000000" points="681.135,713.986 675.236,704.488 680.445,706.518 685.194,703.569 "/>
    <polygon style="fill: none; fill-opacity:0; stroke-width: 2; stroke: #000000" points="681.135,713.986 675.236,704.488 680.445,706.518 685.194,703.569 "/>
  </g>
  <g>
    <polygon style="fill: #ffffff" points="648,793.236 751,793.236 740.7,812.736 751,832.236 648,832.236 "/>
    <polygon style="fill: none; fill-opacity:0; stroke-width: 2; stroke: #000000" points="648,793.236 751,793.236 740.7,812.736 751,832.236 648,832.236 "/>
    <text font-size="12.7998" style="fill: #000000;text-anchor:middle;font-family:sans-serif;font-style:normal;font-weight:normal" x="699.5" y="816.736">
      <tspan x="699.5" y="816.736">GasFull</tspan>
    </text>
  </g>
  <g>
    <path style="fill: none; fill-opacity:0; stroke-width: 2; stroke: #000000" d="M 681.2,763.21 A 43.3275,43.3275 0 0 0 679.813,783.028"/>
    <polygon style="fill: #000000" points="681.545,790.16 673.175,782.749 678.746,783.202 682.452,779.017 "/>
    <polygon style="fill: none; fill-opacity:0; stroke-width: 2; stroke: #000000" points="681.545,790.16 673.175,782.749 678.746,783.202 682.452,779.017 "/>
  </g>
  <g>
    <path style="fill: none; fill-opacity:0; stroke-width: 2; stroke: #000000" d="M 529.997,717.327 A 233.988,233.988 0 0 0 647.012,802.168"/>
    <polygon style="fill: #000000" points="525.673,711.206 535.38,716.754 529.833,717.446 527.059,722.3 "/>
    <polygon style="fill: none; fill-opacity:0; stroke-width: 2; stroke: #000000" points="525.673,711.206 535.38,716.754 529.833,717.446 527.059,722.3 "/>
  </g>
</svg>
