<?xml version="1.0" encoding="UTF-8" standalone="no"?>
<!DOCTYPE svg PUBLIC "-//W3C//DTD SVG 1.0//EN" "http://www.w3.org/TR/2001/PR-SVG-20010719/DTD/svg10.dtd">
<svg width="21cm" height="37cm" viewBox="-63 21 412 729" xmlns="http://www.w3.org/2000/svg" xmlns:xlink="http://www.w3.org/1999/xlink">
  <g>
    <path style="fill: #ffffff" d="M 111.414 22.0002 L 180.586,22.0002 C 189.233,29.6003 192,33.4004 192,41.0005 C 192,48.6006 189.233,52.4007 180.586,60.0008 L 111.414,60.0008 C 102.767,52.4007 100,48.6006 100,41.0005 C 100,33.4004 102.767,29.6003 111.414,22.0002z"/>
    <path style="fill: none; fill-opacity:0; stroke-width: 2; stroke: #000000" d="M 111.414 22.0002 L 180.586,22.0002 C 189.233,29.6003 192,33.4004 192,41.0005 C 192,48.6006 189.233,52.4007 180.586,60.0008 L 111.414,60.0008 C 102.767,52.4007 100,48.6006 100,41.0005 C 100,33.4004 102.767,29.6003 111.414,22.0002"/>
    <text font-size="12.7998" style="fill: #000000;text-anchor:middle;font-family:sans-serif;font-style:normal;font-weight:normal" x="146" y="46.0005">
      <tspan x="146" y="46.0005">Stop</tspan>
    </text>
  </g>
  <g>
    <polygon style="fill: #ffffff" points="101.156,82.0002 192,82.0002 182.916,102 192,122 101.156,122 "/>
    <polygon style="fill: none; fill-opacity:0; stroke-width: 2; stroke: #000000" points="101.156,82.0002 192,82.0002 182.916,102 192,122 101.156,122 "/>
    <text font-size="12.7998" style="fill: #000000;text-anchor:middle;font-family:sans-serif;font-style:normal;font-weight:normal" x="146.578" y="107">
      <tspan x="146.578" y="107">Timer(3)</tspan>
    </text>
  </g>
  <g>
    <polygon style="fill: #ffffff" points="103.75,143 181.6,143 190.25,163 181.6,183 103.75,183 "/>
    <polygon style="fill: none; fill-opacity:0; stroke-width: 2; stroke: #000000" points="103.75,143 181.6,143 190.25,163 181.6,183 103.75,183 "/>
    <text font-size="12.7998" style="fill: #000000;text-anchor:middle;font-family:sans-serif;font-style:normal;font-weight:normal" x="147" y="168">
      <tspan x="147" y="168">Line Follow</tspan>
    </text>
  </g>
  <g>
    <line style="fill: none; fill-opacity:0; stroke-width: 2; stroke: #000000" x1="146" y1="60.0008" x2="146.155" y2="71.2602"/>
    <polygon style="fill: #000000" points="146.258,78.7595 141.121,68.8293 146.155,71.2602 151.12,68.6916 "/>
    <polygon style="fill: none; fill-opacity:0; stroke-width: 2; stroke: #000000" points="146.258,78.7595 141.121,68.8293 146.155,71.2602 151.12,68.6916 "/>
  </g>
  <g>
    <path style="fill: none; fill-opacity:0; stroke-width: 2; stroke: #000000" d="M 143 123 C 148.976,123 144.957,122.141 145.471,132.417"/>
    <polygon style="fill: #000000" points="145.845,139.908 140.352,130.17 145.471,132.417 150.34,129.671 "/>
    <polygon style="fill: none; fill-opacity:0; stroke-width: 2; stroke: #000000" points="145.845,139.908 140.352,130.17 145.471,132.417 150.34,129.671 "/>
  </g>
  <g>
    <path style="fill: #ffffff" d="M 113.823 202 L 176.636,202 C 184.487,210 187,214 187,222 C 187,230 184.487,234 176.636,242 L 113.823,242 C 105.972,234 103.459,230 103.459,222 C 103.459,214 105.972,210 113.823,202z"/>
    <path style="fill: none; fill-opacity:0; stroke-width: 2; stroke: #000000" d="M 113.823 202 L 176.636,202 C 184.487,210 187,214 187,222 C 187,230 184.487,234 176.636,242 L 113.823,242 C 105.972,234 103.459,230 103.459,222 C 103.459,214 105.972,210 113.823,202"/>
    <text font-size="12.7998" style="fill: #000000;text-anchor:middle;font-family:sans-serif;font-style:normal;font-weight:normal" x="145.23" y="227">
      <tspan x="145.23" y="227">Drive</tspan>
    </text>
  </g>
  <g>
    <polygon style="fill: #ffffff" points="220,175.001 313.6,175.001 324,193.001 313.6,211.001 220,211.001 "/>
    <polygon style="fill: none; fill-opacity:0; stroke-width: 2; stroke: #000000" points="220,175.001 313.6,175.001 324,193.001 313.6,211.001 220,211.001 "/>
    <text font-size="12.7998" style="fill: #000000;text-anchor:middle;font-family:sans-serif;font-style:normal;font-weight:normal" x="272" y="198.001">
      <tspan x="272" y="198.001">StopSign</tspan>
    </text>
  </g>
  <g>
    <polygon style="fill: #ffffff" points="221,101.001 325,101.001 314.6,125.501 325,150.001 221,150.001 "/>
    <polygon style="fill: none; fill-opacity:0; stroke-width: 2; stroke: #000000" points="221,101.001 325,101.001 314.6,125.501 325,150.001 221,150.001 "/>
    <text font-size="12.7998" style="fill: #000000;text-anchor:middle;font-family:sans-serif;font-style:normal;font-weight:normal" x="273" y="130.501">
      <tspan x="273" y="130.501">StopMotors</tspan>
    </text>
  </g>
  <g>
    <line style="fill: none; fill-opacity:0; stroke-width: 2; stroke: #000000" x1="184.487" y1="222" x2="262.34" y2="212.215"/>
    <polygon style="fill: #000000" points="269.781,211.279 260.483,217.488 262.34,212.215 259.236,207.566 "/>
    <polygon style="fill: none; fill-opacity:0; stroke-width: 2; stroke: #000000" points="269.781,211.279 260.483,217.488 262.34,212.215 259.236,207.566 "/>
  </g>
  <g>
    <line style="fill: none; fill-opacity:0; stroke-width: 2; stroke: #000000" x1="272" y1="175.001" x2="272.611" y2="159.729"/>
    <polygon style="fill: #000000" points="272.911,152.235 277.507,162.427 272.611,159.729 267.515,162.027 "/>
    <polygon style="fill: none; fill-opacity:0; stroke-width: 2; stroke: #000000" points="272.911,152.235 277.507,162.427 272.611,159.729 267.515,162.027 "/>
  </g>
  <g>
    <path style="fill: none; fill-opacity:0; stroke-width: 2; stroke: #000000" d="M 273,101.001 A 76.3557,76.3557 0 0 0 198.895,40.4626"/>
    <polygon style="fill: #000000" points="191.453,40.735 200.789,34.5829 198.9,39.8444 201.976,44.5121 "/>
    <polygon style="fill: none; fill-opacity:0; stroke-width: 2; stroke: #000000" points="191.453,40.735 200.789,34.5829 198.9,39.8444 201.976,44.5121 "/>
  </g>
  <g>
    <line style="fill: none; fill-opacity:0; stroke-width: 2; stroke: #000000" x1="147" y1="183" x2="146.133" y2="192.306"/>
    <polygon style="fill: #000000" points="145.437,199.774 141.386,189.353 146.133,192.306 151.343,190.281 "/>
    <polygon style="fill: none; fill-opacity:0; stroke-width: 2; stroke: #000000" points="145.437,199.774 141.386,189.353 146.133,192.306 151.343,190.281 "/>
  </g>
  <g>
    <polygon style="fill: #ffffff" points="102,261.001 200,261.001 190.2,280.001 200,299.001 102,299.001 "/>
    <polygon style="fill: none; fill-opacity:0; stroke-width: 2; stroke: #000000" points="102,261.001 200,261.001 190.2,280.001 200,299.001 102,299.001 "/>
    <text font-size="12.7998" style="fill: #000000;text-anchor:middle;font-family:sans-serif;font-style:normal;font-weight:normal" x="151" y="285.001">
      <tspan x="151" y="285.001">Intersection</tspan>
    </text>
  </g>
  <g>
    <polygon style="fill: #ffffff" points="102,320.001 192.9,320.001 203,341.001 192.9,362.001 102,362.001 "/>
    <polygon style="fill: none; fill-opacity:0; stroke-width: 2; stroke: #000000" points="102,320.001 192.9,320.001 203,341.001 192.9,362.001 102,362.001 "/>
    <text font-size="12.7998" style="fill: #000000;text-anchor:middle;font-family:sans-serif;font-style:normal;font-weight:normal" x="152.5" y="346.001">
      <tspan x="152.5" y="346.001">Straighten</tspan>
    </text>
  </g>
  <g>
    <path style="fill: #ffffff" d="M 115.662 382.001 L 186.338,382.001 C 195.173,389.001 198,392.501 198,399.501 C 198,406.501 195.173,410.001 186.338,417.001 L 115.662,417.001 C 106.827,410.001 104,406.501 104,399.501 C 104,392.501 106.827,389.001 115.662,382.001z"/>
    <path style="fill: none; fill-opacity:0; stroke-width: 2; stroke: #000000" d="M 115.662 382.001 L 186.338,382.001 C 195.173,389.001 198,392.501 198,399.501 C 198,406.501 195.173,410.001 186.338,417.001 L 115.662,417.001 C 106.827,410.001 104,406.501 104,399.501 C 104,392.501 106.827,389.001 115.662,382.001"/>
    <text font-size="12.7998" style="fill: #000000;text-anchor:middle;font-family:sans-serif;font-style:normal;font-weight:normal" x="151" y="404.501">
      <tspan x="151" y="404.501">WaitSign</tspan>
    </text>
  </g>
  <g>
    <line style="fill: none; fill-opacity:0; stroke-width: 2; stroke: #000000" x1="145.23" y1="242" x2="148.171" y2="251.685"/>
    <polygon style="fill: #000000" points="150.35,258.861 142.66,250.746 148.171,251.685 152.228,247.84 "/>
    <polygon style="fill: none; fill-opacity:0; stroke-width: 2; stroke: #000000" points="150.35,258.861 142.66,250.746 148.171,251.685 152.228,247.84 "/>
  </g>
  <g>
    <line style="fill: none; fill-opacity:0; stroke-width: 2; stroke: #000000" x1="151" y1="299.001" x2="151.806" y2="310.29"/>
    <polygon style="fill: #000000" points="152.341,317.771 146.641,308.152 151.806,310.29 156.616,307.44 "/>
    <polygon style="fill: none; fill-opacity:0; stroke-width: 2; stroke: #000000" points="152.341,317.771 146.641,308.152 151.806,310.29 156.616,307.44 "/>
  </g>
  <g>
    <line style="fill: none; fill-opacity:0; stroke-width: 2; stroke: #000000" x1="152.5" y1="362.001" x2="151.728" y2="372.292"/>
    <polygon style="fill: #000000" points="151.167,379.771 146.929,369.425 151.728,372.292 156.901,370.173 "/>
    <polygon style="fill: none; fill-opacity:0; stroke-width: 2; stroke: #000000" points="151.167,379.771 146.929,369.425 151.728,372.292 156.901,370.173 "/>
  </g>
  <g>
    <line style="fill: none; fill-opacity:0; stroke-width: 2; stroke: #000000" x1="151" y1="417.001" x2="58.9535" y2="439.673"/>
    <polygon style="fill: #000000" points="51.6712,441.467 60.1852,434.22 58.9535,439.673 62.5768,443.93 "/>
    <polygon style="fill: none; fill-opacity:0; stroke-width: 2; stroke: #000000" points="51.6712,441.467 60.1852,434.22 58.9535,439.673 62.5768,443.93 "/>
  </g>
  <g>
    <line style="fill: none; fill-opacity:0; stroke-width: 2; stroke: #000000" x1="151" y1="417.001" x2="154.639" y2="431.556"/>
    <polygon style="fill: #000000" points="156.458,438.832 149.182,430.344 154.639,431.556 158.883,427.918 "/>
    <polygon style="fill: none; fill-opacity:0; stroke-width: 2; stroke: #000000" points="156.458,438.832 149.182,430.344 154.639,431.556 158.883,427.918 "/>
  </g>
  <g>
    <line style="fill: none; fill-opacity:0; stroke-width: 2; stroke: #000000" x1="151" y1="417.001" x2="265.414" y2="437.301"/>
    <polygon style="fill: #000000" points="272.798,438.611 262.079,441.787 265.414,437.301 263.826,431.941 "/>
    <polygon style="fill: none; fill-opacity:0; stroke-width: 2; stroke: #000000" points="272.798,438.611 262.079,441.787 265.414,437.301 263.826,431.941 "/>
  </g>
  <g>
    <polygon style="fill: #ffffff" points="3,442.002 96,442.002 86.7,463.002 96,484.002 3,484.002 "/>
    <polygon style="fill: none; fill-opacity:0; stroke-width: 2; stroke: #000000" points="3,442.002 96,442.002 86.7,463.002 96,484.002 3,484.002 "/>
    <text font-size="12.7998" style="fill: #000000;text-anchor:middle;font-family:sans-serif;font-style:normal;font-weight:normal" x="49.5" y="468.002">
      <tspan x="49.5" y="468.002">GoSign</tspan>
    </text>
  </g>
  <g>
    <polygon style="fill: #ffffff" points="112,441.002 202,441.002 193,461.002 202,481.002 112,481.002 "/>
    <polygon style="fill: none; fill-opacity:0; stroke-width: 2; stroke: #000000" points="112,441.002 202,441.002 193,461.002 202,481.002 112,481.002 "/>
    <text font-size="12.7998" style="fill: #000000;text-anchor:middle;font-family:sans-serif;font-style:normal;font-weight:normal" x="157" y="466.002">
      <tspan x="157" y="466.002">LeftSign</tspan>
    </text>
  </g>
  <g>
    <polygon style="fill: #ffffff" points="223,439.002 327,439.002 316.6,462.502 327,486.002 223,486.002 "/>
    <polygon style="fill: none; fill-opacity:0; stroke-width: 2; stroke: #000000" points="223,439.002 327,439.002 316.6,462.502 327,486.002 223,486.002 "/>
    <text font-size="12.7998" style="fill: #000000;text-anchor:middle;font-family:sans-serif;font-style:normal;font-weight:normal" x="275" y="467.502">
      <tspan x="275" y="467.502">RightSign</tspan>
    </text>
  </g>
  <g>
    <polygon style="fill: #ffffff" points="-0.6875,502.002 95.95,502.002 106.688,521.002 95.95,540.002 -0.6875,540.002 "/>
    <polygon style="fill: none; fill-opacity:0; stroke-width: 2; stroke: #000000" points="-0.6875,502.002 95.95,502.002 106.688,521.002 95.95,540.002 -0.6875,540.002 "/>
    <text font-size="12.7998" style="fill: #000000;text-anchor:middle;font-family:sans-serif;font-style:normal;font-weight:normal" x="53" y="526.002">
      <tspan x="53" y="526.002">FowardMotors</tspan>
    </text>
  </g>
  <g>
    <polygon style="fill: #ffffff" points="108.25,503.002 210.4,503.002 221.75,522.002 210.4,541.002 108.25,541.002 "/>
    <polygon style="fill: none; fill-opacity:0; stroke-width: 2; stroke: #000000" points="108.25,503.002 210.4,503.002 221.75,522.002 210.4,541.002 108.25,541.002 "/>
    <text font-size="12.7998" style="fill: #000000;text-anchor:middle;font-family:sans-serif;font-style:normal;font-weight:normal" x="165" y="519.002">
      <tspan x="165" y="519.002">FowardMotors/</tspan>
      <tspan x="165" y="535.002">LeftMotors</tspan>
    </text>
  </g>
  <g>
    <polygon style="fill: #ffffff" points="240,500.502 337.2,500.502 348,519.502 337.2,538.502 240,538.502 "/>
    <polygon style="fill: none; fill-opacity:0; stroke-width: 2; stroke: #000000" points="240,500.502 337.2,500.502 348,519.502 337.2,538.502 240,538.502 "/>
    <text font-size="12.7998" style="fill: #000000;text-anchor:middle;font-family:sans-serif;font-style:normal;font-weight:normal" x="294" y="524.502">
      <tspan x="294" y="524.502">RightMotors</tspan>
    </text>
  </g>
  <g>
    <path style="fill: #ffffff" d="M 119.15 580.003 L 198.85,580.003 C 208.812,587.803 212,591.703 212,599.503 C 212,607.303 208.812,611.203 198.85,619.003 L 119.15,619.003 C 109.188,611.203 106,607.303 106,599.503 C 106,591.703 109.188,587.803 119.15,580.003z"/>
    <path style="fill: none; fill-opacity:0; stroke-width: 2; stroke: #000000" d="M 119.15 580.003 L 198.85,580.003 C 208.812,587.803 212,591.703 212,599.503 C 212,607.303 208.812,611.203 198.85,619.003 L 119.15,619.003 C 109.188,611.203 106,607.303 106,599.503 C 106,591.703 109.188,587.803 119.15,580.003"/>
    <text font-size="12.7998" style="fill: #000000;text-anchor:middle;font-family:sans-serif;font-style:normal;font-weight:normal" x="159" y="604.503">
      <tspan x="159" y="604.503">Block</tspan>
    </text>
  </g>
  <g>
    <polygon style="fill: #ffffff" points="112,641.003 207,641.003 197.5,660.003 207,679.003 112,679.003 "/>
    <polygon style="fill: none; fill-opacity:0; stroke-width: 2; stroke: #000000" points="112,641.003 207,641.003 197.5,660.003 207,679.003 112,679.003 "/>
    <text font-size="12.7998" style="fill: #000000;text-anchor:middle;font-family:sans-serif;font-style:normal;font-weight:normal" x="159.5" y="665.003">
      <tspan x="159.5" y="665.003">MotorDone</tspan>
    </text>
  </g>
  <g>
    <polygon style="fill: #ffffff" points="112,706.003 196.6,706.003 206,727.003 196.6,748.003 112,748.003 "/>
    <polygon style="fill: none; fill-opacity:0; stroke-width: 2; stroke: #000000" points="112,706.003 196.6,706.003 206,727.003 196.6,748.003 112,748.003 "/>
    <text font-size="12.7998" style="fill: #000000;text-anchor:middle;font-family:sans-serif;font-style:normal;font-weight:normal" x="159" y="732.003">
      <tspan x="159" y="732.003">LineFollow</tspan>
    </text>
  </g>
  <g>
    <line style="fill: none; fill-opacity:0; stroke-width: 2; stroke: #000000" x1="49.5" y1="484.002" x2="51.1417" y2="492.445"/>
    <polygon style="fill: #000000" points="52.5732,499.807 45.7565,490.945 51.1417,492.445 55.5726,489.037 "/>
    <polygon style="fill: none; fill-opacity:0; stroke-width: 2; stroke: #000000" points="52.5732,499.807 45.7565,490.945 51.1417,492.445 55.5726,489.037 "/>
  </g>
  <g>
    <line style="fill: none; fill-opacity:0; stroke-width: 2; stroke: #000000" x1="157" y1="481.002" x2="161.673" y2="493.852"/>
    <polygon style="fill: #000000" points="164.236,500.901 156.119,493.211 161.673,493.852 165.517,489.794 "/>
    <polygon style="fill: none; fill-opacity:0; stroke-width: 2; stroke: #000000" points="164.236,500.901 156.119,493.211 161.673,493.852 165.517,489.794 "/>
  </g>
  <g>
    <line style="fill: none; fill-opacity:0; stroke-width: 2; stroke: #000000" x1="275" y1="486.002" x2="286.26" y2="494.595"/>
    <polygon style="fill: #000000" points="292.222,499.146 281.24,497.053 286.26,494.595 287.306,489.104 "/>
    <polygon style="fill: none; fill-opacity:0; stroke-width: 2; stroke: #000000" points="292.222,499.146 281.24,497.053 286.26,494.595 287.306,489.104 "/>
  </g>
  <g>
    <line style="fill: none; fill-opacity:0; stroke-width: 2; stroke: #000000" x1="53" y1="540.002" x2="149.891" y2="576.565"/>
    <polygon style="fill: #000000" points="156.908,579.213 145.787,580.361 149.891,576.565 149.317,571.005 "/>
    <polygon style="fill: none; fill-opacity:0; stroke-width: 2; stroke: #000000" points="156.908,579.213 145.787,580.361 149.891,576.565 149.317,571.005 "/>
  </g>
  <g>
    <line style="fill: none; fill-opacity:0; stroke-width: 2; stroke: #000000" x1="165" y1="541.002" x2="160.48" y2="570.38"/>
    <polygon style="fill: #000000" points="159.34,577.793 155.919,567.149 160.48,570.38 165.802,568.669 "/>
    <polygon style="fill: none; fill-opacity:0; stroke-width: 2; stroke: #000000" points="159.34,577.793 155.919,567.149 160.48,570.38 165.802,568.669 "/>
  </g>
  <g>
    <line style="fill: none; fill-opacity:0; stroke-width: 2; stroke: #000000" x1="294" y1="538.502" x2="168.306" y2="577.142"/>
    <polygon style="fill: #000000" points="161.137,579.346 169.227,571.628 168.306,577.142 172.165,581.186 "/>
    <polygon style="fill: none; fill-opacity:0; stroke-width: 2; stroke: #000000" points="161.137,579.346 169.227,571.628 168.306,577.142 172.165,581.186 "/>
  </g>
  <g>
    <line style="fill: none; fill-opacity:0; stroke-width: 2; stroke: #000000" x1="159" y1="619.003" x2="159.279" y2="631.269"/>
    <polygon style="fill: #000000" points="159.449,638.768 154.223,628.884 159.279,631.269 164.221,628.656 "/>
    <polygon style="fill: none; fill-opacity:0; stroke-width: 2; stroke: #000000" points="159.449,638.768 154.223,628.884 159.279,631.269 164.221,628.656 "/>
  </g>
  <g>
    <line style="fill: none; fill-opacity:0; stroke-width: 2; stroke: #000000" x1="159.5" y1="679.003" x2="159.18" y2="696.269"/>
    <polygon style="fill: #000000" points="159.041,703.768 154.227,693.677 159.18,696.269 164.226,693.862 "/>
    <polygon style="fill: none; fill-opacity:0; stroke-width: 2; stroke: #000000" points="159.041,703.768 154.227,693.677 159.18,696.269 164.226,693.862 "/>
  </g>
  <g>
    <path style="fill: none; fill-opacity:0; stroke-width: 2; stroke: #000000" d="M 96.2352,236.834 A 256.143,256.143 0 0 0 110.996,715.465"/>
    <polygon style="fill: #000000" points="103.194,234.049 95.564,242.221 96.1641,236.663 92.0779,232.848 "/>
    <polygon style="fill: none; fill-opacity:0; stroke-width: 2; stroke: #000000" points="103.194,234.049 95.564,242.221 96.1641,236.663 92.0779,232.848 "/>
  </g>
  <g>
    <polygon style="fill: #ffffff" points="222.002,239 317.002,239 307.502,260 317.002,281 222.002,281 "/>
    <polygon style="fill: none; fill-opacity:0; stroke-width: 2; stroke: #000000" points="222.002,239 317.002,239 307.502,260 317.002,281 222.002,281 "/>
    <text font-size="12.7998" style="fill: #000000;text-anchor:middle;font-family:sans-serif;font-style:normal;font-weight:normal" x="269.502" y="265">
      <tspan x="269.502" y="265">ParkSign</tspan>
    </text>
  </g>
  <g>
    <polygon style="fill: #ffffff" points="223.002,302 308.502,302 318.002,323 308.502,344 223.002,344 "/>
    <polygon style="fill: none; fill-opacity:0; stroke-width: 2; stroke: #000000" points="223.002,302 308.502,302 318.002,323 308.502,344 223.002,344 "/>
    <text font-size="12.7998" style="fill: #000000;text-anchor:middle;font-family:sans-serif;font-style:normal;font-weight:normal" x="270.502" y="328">
      <tspan x="270.502" y="328">ParkCar</tspan>
    </text>
  </g>
  <g>
    <path style="fill: #ffffff" d="M 234.043 374 L 300.961,374 C 309.325,381.6 312.002,385.4 312.002,393 C 312.002,400.6 309.325,404.4 300.961,412 L 234.043,412 C 225.679,404.4 223.002,400.6 223.002,393 C 223.002,385.4 225.679,381.6 234.043,374z"/>
    <path style="fill: none; fill-opacity:0; stroke-width: 2; stroke: #000000" d="M 234.043 374 L 300.961,374 C 309.325,381.6 312.002,385.4 312.002,393 C 312.002,400.6 309.325,404.4 300.961,412 L 234.043,412 C 225.679,404.4 223.002,400.6 223.002,393 C 223.002,385.4 225.679,381.6 234.043,374"/>
    <text font-size="12.7998" style="fill: #000000;text-anchor:middle;font-family:sans-serif;font-style:normal;font-weight:normal" x="267.502" y="398">
      <tspan x="267.502" y="398">Park</tspan>
    </text>
  </g>
  <g>
    <line style="fill: none; fill-opacity:0; stroke-width: 2; stroke: #000000" x1="184.487" y1="222" x2="259.955" y2="237.091"/>
    <polygon style="fill: #000000" points="267.309,238.562 256.523,241.504 259.955,237.091 258.484,231.698 "/>
    <polygon style="fill: none; fill-opacity:0; stroke-width: 2; stroke: #000000" points="267.309,238.562 256.523,241.504 259.955,237.091 258.484,231.698 "/>
  </g>
  <g>
    <line style="fill: none; fill-opacity:0; stroke-width: 2; stroke: #000000" x1="269.502" y1="281" x2="270.039" y2="292.275"/>
    <polygon style="fill: #000000" points="270.396,299.767 264.926,290.016 270.039,292.275 274.914,289.54 "/>
    <polygon style="fill: none; fill-opacity:0; stroke-width: 2; stroke: #000000" points="270.396,299.767 264.926,290.016 270.039,292.275 274.914,289.54 "/>
  </g>
  <g>
    <line style="fill: none; fill-opacity:0; stroke-width: 2; stroke: #000000" x1="270.502" y1="344" x2="269.319" y2="363.328"/>
    <polygon style="fill: #000000" points="268.86,370.814 264.481,360.527 269.319,363.328 274.462,361.138 "/>
    <polygon style="fill: none; fill-opacity:0; stroke-width: 2; stroke: #000000" points="268.86,370.814 264.481,360.527 269.319,363.328 274.462,361.138 "/>
  </g>
</svg>
