<?xml version="1.0" encoding="UTF-8" standalone="no"?>
<!DOCTYPE svg PUBLIC "-//W3C//DTD SVG 1.0//EN" "http://www.w3.org/TR/2001/PR-SVG-20010719/DTD/svg10.dtd">
<svg width="21cm" height="37cm" viewBox="-63 21 412 729" xmlns="http://www.w3.org/2000/svg" xmlns:xlink="http://www.w3.org/1999/xlink">
  <g>
    <path style="fill: #ffffff" d="M 111.414 22.0002 L 180.586,22.0002 C 189.233,29.6003 192,33.4004 192,41.0005 C 192,48.6006 189.233,52.4007 180.586,60.0008 L 111.414,60.0008 C 102.767,52.4007 100,48.6006 100,41.0005 C 100,33.4004 102.767,29.6003 111.414,22.0002z"/>
    <path style="fill: none; fill-opacity:0; stroke-width: 2; stroke: #000000" d="M 111.414 22.0002 L 180.586,22.0002 C 189.233,29.6003 192,33.4004 192,41.0005 C 192,48.6006 189.233,52.4007 180.586,60.0008 L 111.414,60.0008 C 102.767,52.4007 100,48.6006 100,41.0005 C 100,33.4004 102.767,29.6003 111.414,22.0002"/>
    <text font-size="12.8" style="fill: #000000;text-anchor:middle;font-family:sans-serif;font-style:normal;font-weight:normal" x="146" y="45.8005">
      <tspan x="146" y="45.8005">Stop</tspan>
    </text>
  </g>
  <g>
    <polygon style="fill: #ffffff" points="101.156,82.0002 192,82.0002 182.916,102 192,122 101.156,122 "/>
    <polygon style="fill: none; fill-opacity:0; stroke-width: 2; stroke: #000000" points="101.156,82.0002 192,82.0002 182.916,102 192,122 101.156,122 "/>
    <text font-size="12.8" style="fill: #000000;text-anchor:middle;font-family:sans-serif;font-style:normal;font-weight:normal" x="146.578" y="106.8">
      <tspan x="146.578" y="106.8">Timer(3)</tspan>
    </text>
  </g>
  <g>
    <polygon style="fill: #ffffff" points="103.75,143 181.6,143 190.25,163 181.6,183 103.75,183 "/>
    <polygon style="fill: none; fill-opacity:0; stroke-width: 2; stroke: #000000" points="103.75,143 181.6,143 190.25,163 181.6,183 103.75,183 "/>
    <text font-size="12.8" style="fill: #000000;text-anchor:middle;font-family:sans-serif;font-style:normal;font-weight:normal" x="147" y="167.8">
      <tspan x="147" y="167.8">Line Follow</tspan>
    </text>
  </g>
  <g>
    <line style="fill: none; fill-opacity:0; stroke-width: 2; stroke: #000000" x1="146" y1="60.0008" x2="146.155" y2="71.2602"/>
    <polygon style="fill: #000000" points="146.258,78.7595 141.121,68.8293 146.155,71.2602 151.12,68.6917 "/>
    <polygon style="fill: none; fill-opacity:0; stroke-width: 2; stroke: #000000" points="146.258,78.7595 141.121,68.8293 146.155,71.2602 151.12,68.6917 "/>
  </g>
  <g>
    <path style="fill: none; fill-opacity:0; stroke-width: 2; stroke: #000000" d="M 143 123 C 148.976,123 144.957,122.141 145.471,132.417"/>
    <polygon style="fill: #000000" points="145.845,139.908 140.352,130.17 145.471,132.417 150.34,129.671 "/>
    <polygon style="fill: none; fill-opacity:0; stroke-width: 2; stroke: #000000" points="145.845,139.908 140.352,130.17 145.471,132.417 150.34,129.671 "/>
  </g>
  <g>
    <path style="fill: #ffffff" d="M 113.823 202 L 176.636,202 C 184.487,210 187,214 187,222 C 187,230 184.487,234 176.636,242 L 113.823,242 C 105.972,234 103.459,230 103.459,222 C 103.459,214 105.972,210 113.823,202z"/>
    <path style="fill: none; fill-opacity:0; stroke-width: 2; stroke: #000000" d="M 113.823 202 L 176.636,202 C 184.487,210 187,214 187,222 C 187,230 184.487,234 176.636,242 L 113.823,242 C 105.972,234 103.459,230 103.459,222 C 103.459,214 105.972,210 113.823,202"/>
    <text font-size="12.8" style="fill: #000000;text-anchor:middle;font-family:sans-serif;font-style:normal;font-weight:normal" x="145.23" y="226.8">
      <tspan x="145.23" y="226.8">Drive</tspan>
    </text>
  </g>
  <g>
    <line style="fill: none; fill-opacity:0; stroke-width: 2; stroke: #000000" x1="184.487" y1="222" x2="263.006" y2="204.157"/>
    <polygon style="fill: #000000" points="270.32,202.495 261.676,209.587 263.006,204.157 259.46,199.836 "/>
    <polygon style="fill: none; fill-opacity:0; stroke-width: 2; stroke: #000000" points="270.32,202.495 261.676,209.587 263.006,204.157 259.46,199.836 "/>
  </g>
  <g>
    <line style="fill: none; fill-opacity:0; stroke-width: 2; stroke: #000000" x1="272.5" y1="160" x2="273.792" y2="149.661"/>
    <polygon style="fill: #000000" points="274.723,142.219 278.444,152.762 273.792,149.661 268.521,151.521 "/>
    <polygon style="fill: none; fill-opacity:0; stroke-width: 2; stroke: #000000" points="274.723,142.219 278.444,152.762 273.792,149.661 268.521,151.521 "/>
  </g>
  <g>
    <path style="fill: none; fill-opacity:0; stroke-width: 2; stroke: #000000" d="M 275,103 A 79.9996,79.9996 0 0 0 198.909,40.6494"/>
    <polygon style="fill: #000000" points="191.459,40.7842 200.928,34.841 198.923,40.0593 201.895,44.7942 "/>
    <polygon style="fill: none; fill-opacity:0; stroke-width: 2; stroke: #000000" points="191.459,40.7842 200.928,34.841 198.923,40.0593 201.895,44.7942 "/>
  </g>
  <g>
    <line style="fill: none; fill-opacity:0; stroke-width: 2; stroke: #000000" x1="147" y1="183" x2="146.133" y2="192.306"/>
    <polygon style="fill: #000000" points="145.437,199.774 141.386,189.353 146.133,192.306 151.343,190.281 "/>
    <polygon style="fill: none; fill-opacity:0; stroke-width: 2; stroke: #000000" points="145.437,199.774 141.386,189.353 146.133,192.306 151.343,190.281 "/>
  </g>
  <g>
    <polygon style="fill: #ffffff" points="102,261 200,261 190.2,280 200,299 102,299 "/>
    <polygon style="fill: none; fill-opacity:0; stroke-width: 2; stroke: #000000" points="102,261 200,261 190.2,280 200,299 102,299 "/>
    <text font-size="12.8" style="fill: #000000;text-anchor:middle;font-family:sans-serif;font-style:normal;font-weight:normal" x="151" y="284.8">
      <tspan x="151" y="284.8">Intersection</tspan>
    </text>
  </g>
  <g>
    <polygon style="fill: #ffffff" points="102,320 192.9,320 203,341 192.9,362 102,362 "/>
    <polygon style="fill: none; fill-opacity:0; stroke-width: 2; stroke: #000000" points="102,320 192.9,320 203,341 192.9,362 102,362 "/>
    <text font-size="12.8" style="fill: #000000;text-anchor:middle;font-family:sans-serif;font-style:normal;font-weight:normal" x="152.5" y="345.8">
      <tspan x="152.5" y="345.8">Straighten</tspan>
    </text>
  </g>
  <g>
    <path style="fill: #ffffff" d="M 115.662 382.002 L 186.338,382.002 C 195.173,389.002 198,392.502 198,399.502 C 198,406.502 195.173,410.002 186.338,417.002 L 115.662,417.002 C 106.827,410.002 104,406.502 104,399.502 C 104,392.502 106.827,389.002 115.662,382.002z"/>
    <path style="fill: none; fill-opacity:0; stroke-width: 2; stroke: #000000" d="M 115.662 382.002 L 186.338,382.002 C 195.173,389.002 198,392.502 198,399.502 C 198,406.502 195.173,410.002 186.338,417.002 L 115.662,417.002 C 106.827,410.002 104,406.502 104,399.502 C 104,392.502 106.827,389.002 115.662,382.002"/>
    <text font-size="12.8" style="fill: #000000;text-anchor:middle;font-family:sans-serif;font-style:normal;font-weight:normal" x="151" y="404.302">
      <tspan x="151" y="404.302">WaitSign</tspan>
    </text>
  </g>
  <g>
    <line style="fill: none; fill-opacity:0; stroke-width: 2; stroke: #000000" x1="145.23" y1="242" x2="148.171" y2="251.684"/>
    <polygon style="fill: #000000" points="150.35,258.86 142.66,250.745 148.171,251.684 152.228,247.839 "/>
    <polygon style="fill: none; fill-opacity:0; stroke-width: 2; stroke: #000000" points="150.35,258.86 142.66,250.745 148.171,251.684 152.228,247.839 "/>
  </g>
  <g>
    <line style="fill: none; fill-opacity:0; stroke-width: 2; stroke: #000000" x1="151" y1="299" x2="151.806" y2="310.289"/>
    <polygon style="fill: #000000" points="152.341,317.77 146.641,308.151 151.806,310.289 156.616,307.439 "/>
    <polygon style="fill: none; fill-opacity:0; stroke-width: 2; stroke: #000000" points="152.341,317.77 146.641,308.151 151.806,310.289 156.616,307.439 "/>
  </g>
  <g>
    <line style="fill: none; fill-opacity:0; stroke-width: 2; stroke: #000000" x1="152.5" y1="362.002" x2="151.728" y2="372.293"/>
    <polygon style="fill: #000000" points="151.167,379.772 146.929,369.426 151.728,372.293 156.901,370.174 "/>
    <polygon style="fill: none; fill-opacity:0; stroke-width: 2; stroke: #000000" points="151.167,379.772 146.929,369.426 151.728,372.293 156.901,370.174 "/>
  </g>
  <g>
    <line style="fill: none; fill-opacity:0; stroke-width: 2; stroke: #000000" x1="151" y1="417.002" x2="58.9535" y2="439.674"/>
    <polygon style="fill: #000000" points="51.6712,441.467 60.1852,434.221 58.9535,439.674 62.5768,443.931 "/>
    <polygon style="fill: none; fill-opacity:0; stroke-width: 2; stroke: #000000" points="51.6712,441.467 60.1852,434.221 58.9535,439.674 62.5768,443.931 "/>
  </g>
  <g>
    <line style="fill: none; fill-opacity:0; stroke-width: 2; stroke: #000000" x1="151" y1="417.002" x2="154.639" y2="431.557"/>
    <polygon style="fill: #000000" points="156.458,438.833 149.182,430.344 154.639,431.557 158.883,427.919 "/>
    <polygon style="fill: none; fill-opacity:0; stroke-width: 2; stroke: #000000" points="156.458,438.833 149.182,430.344 154.639,431.557 158.883,427.919 "/>
  </g>
  <g>
    <line style="fill: none; fill-opacity:0; stroke-width: 2; stroke: #000000" x1="151" y1="417.002" x2="265.414" y2="437.301"/>
    <polygon style="fill: #000000" points="272.798,438.611 262.079,441.788 265.414,437.301 263.826,431.941 "/>
    <polygon style="fill: none; fill-opacity:0; stroke-width: 2; stroke: #000000" points="272.798,438.611 262.079,441.788 265.414,437.301 263.826,431.941 "/>
  </g>
  <g>
    <polygon style="fill: #ffffff" points="3,442.002 96,442.002 86.7,463.002 96,484.002 3,484.002 "/>
    <polygon style="fill: none; fill-opacity:0; stroke-width: 2; stroke: #000000" points="3,442.002 96,442.002 86.7,463.002 96,484.002 3,484.002 "/>
    <text font-size="12.8" style="fill: #000000;text-anchor:middle;font-family:sans-serif;font-style:normal;font-weight:normal" x="49.5" y="467.802">
      <tspan x="49.5" y="467.802">GoSign</tspan>
    </text>
  </g>
  <g>
    <polygon style="fill: #ffffff" points="112,441.002 202,441.002 193,461.002 202,481.002 112,481.002 "/>
    <polygon style="fill: none; fill-opacity:0; stroke-width: 2; stroke: #000000" points="112,441.002 202,441.002 193,461.002 202,481.002 112,481.002 "/>
    <text font-size="12.8" style="fill: #000000;text-anchor:middle;font-family:sans-serif;font-style:normal;font-weight:normal" x="157" y="465.802">
      <tspan x="157" y="465.802">LeftSign</tspan>
    </text>
  </g>
  <g>
    <polygon style="fill: #ffffff" points="223,439.002 327,439.002 316.6,462.502 327,486.002 223,486.002 "/>
    <polygon style="fill: none; fill-opacity:0; stroke-width: 2; stroke: #000000" points="223,439.002 327,439.002 316.6,462.502 327,486.002 223,486.002 "/>
    <text font-size="12.8" style="fill: #000000;text-anchor:middle;font-family:sans-serif;font-style:normal;font-weight:normal" x="275" y="467.302">
      <tspan x="275" y="467.302">RightSign</tspan>
    </text>
  </g>
  <g>
    <polygon style="fill: #ffffff" points="-0.6875,502.002 95.95,502.002 106.688,521.002 95.95,540.002 -0.6875,540.002 "/>
    <polygon style="fill: none; fill-opacity:0; stroke-width: 2; stroke: #000000" points="-0.6875,502.002 95.95,502.002 106.688,521.002 95.95,540.002 -0.6875,540.002 "/>
    <text font-size="12.8" style="fill: #000000;text-anchor:middle;font-family:sans-serif;font-style:normal;font-weight:normal" x="53" y="525.802">
      <tspan x="53" y="525.802">FowardMotors</tspan>
    </text>
  </g>
  <g>
    <polygon style="fill: #ffffff" points="108.25,503.002 210.4,503.002 221.75,522.002 210.4,541.002 108.25,541.002 "/>
    <polygon style="fill: none; fill-opacity:0; stroke-width: 2; stroke: #000000" points="108.25,503.002 210.4,503.002 221.75,522.002 210.4,541.002 108.25,541.002 "/>
    <text font-size="12.8" style="fill: #000000;text-anchor:middle;font-family:sans-serif;font-style:normal;font-weight:normal" x="165" y="518.802">
      <tspan x="165" y="518.802">FowardMotors/</tspan>
      <tspan x="165" y="534.802">LeftMotors</tspan>
    </text>
  </g>
  <g>
    <polygon style="fill: #ffffff" points="240,500.502 337.2,500.502 348,519.502 337.2,538.502 240,538.502 "/>
    <polygon style="fill: none; fill-opacity:0; stroke-width: 2; stroke: #000000" points="240,500.502 337.2,500.502 348,519.502 337.2,538.502 240,538.502 "/>
    <text font-size="12.8" style="fill: #000000;text-anchor:middle;font-family:sans-serif;font-style:normal;font-weight:normal" x="294" y="524.302">
      <tspan x="294" y="524.302">RightMotors</tspan>
    </text>
  </g>
  <g>
    <path style="fill: #ffffff" d="M 119.15 580.002 L 198.85,580.002 C 208.812,587.802 212,591.702 212,599.502 C 212,607.302 208.812,611.202 198.85,619.002 L 119.15,619.002 C 109.188,611.202 106,607.302 106,599.502 C 106,591.702 109.188,587.802 119.15,580.002z"/>
    <path style="fill: none; fill-opacity:0; stroke-width: 2; stroke: #000000" d="M 119.15 580.002 L 198.85,580.002 C 208.812,587.802 212,591.702 212,599.502 C 212,607.302 208.812,611.202 198.85,619.002 L 119.15,619.002 C 109.188,611.202 106,607.302 106,599.502 C 106,591.702 109.188,587.802 119.15,580.002"/>
    <text font-size="12.8" style="fill: #000000;text-anchor:middle;font-family:sans-serif;font-style:normal;font-weight:normal" x="159" y="604.302">
      <tspan x="159" y="604.302">Block</tspan>
    </text>
  </g>
  <g>
    <polygon style="fill: #ffffff" points="112,641.002 207,641.002 197.5,660.002 207,679.002 112,679.002 "/>
    <polygon style="fill: none; fill-opacity:0; stroke-width: 2; stroke: #000000" points="112,641.002 207,641.002 197.5,660.002 207,679.002 112,679.002 "/>
    <text font-size="12.8" style="fill: #000000;text-anchor:middle;font-family:sans-serif;font-style:normal;font-weight:normal" x="159.5" y="664.802">
      <tspan x="159.5" y="664.802">MotorDone</tspan>
    </text>
  </g>
  <g>
    <polygon style="fill: #ffffff" points="112,706.004 196.6,706.004 206,727.004 196.6,748.004 112,748.004 "/>
    <polygon style="fill: none; fill-opacity:0; stroke-width: 2; stroke: #000000" points="112,706.004 196.6,706.004 206,727.004 196.6,748.004 112,748.004 "/>
    <text font-size="12.8" style="fill: #000000;text-anchor:middle;font-family:sans-serif;font-style:normal;font-weight:normal" x="159" y="731.804">
      <tspan x="159" y="731.804">LineFollow</tspan>
    </text>
  </g>
  <g>
    <line style="fill: none; fill-opacity:0; stroke-width: 2; stroke: #000000" x1="49.5" y1="484.002" x2="51.1417" y2="492.445"/>
    <polygon style="fill: #000000" points="52.5732,499.807 45.7564,490.945 51.1417,492.445 55.5726,489.037 "/>
    <polygon style="fill: none; fill-opacity:0; stroke-width: 2; stroke: #000000" points="52.5732,499.807 45.7564,490.945 51.1417,492.445 55.5726,489.037 "/>
  </g>
  <g>
    <line style="fill: none; fill-opacity:0; stroke-width: 2; stroke: #000000" x1="157" y1="481.002" x2="161.673" y2="493.852"/>
    <polygon style="fill: #000000" points="164.236,500.901 156.119,493.211 161.673,493.852 165.517,489.794 "/>
    <polygon style="fill: none; fill-opacity:0; stroke-width: 2; stroke: #000000" points="164.236,500.901 156.119,493.211 161.673,493.852 165.517,489.794 "/>
  </g>
  <g>
    <line style="fill: none; fill-opacity:0; stroke-width: 2; stroke: #000000" x1="275" y1="486.002" x2="286.26" y2="494.595"/>
    <polygon style="fill: #000000" points="292.222,499.145 281.24,497.053 286.26,494.595 287.306,489.104 "/>
    <polygon style="fill: none; fill-opacity:0; stroke-width: 2; stroke: #000000" points="292.222,499.145 281.24,497.053 286.26,494.595 287.306,489.104 "/>
  </g>
  <g>
    <line style="fill: none; fill-opacity:0; stroke-width: 2; stroke: #000000" x1="53" y1="540.002" x2="149.891" y2="576.565"/>
    <polygon style="fill: #000000" points="156.908,579.213 145.787,580.36 149.891,576.565 149.317,571.004 "/>
    <polygon style="fill: none; fill-opacity:0; stroke-width: 2; stroke: #000000" points="156.908,579.213 145.787,580.36 149.891,576.565 149.317,571.004 "/>
  </g>
  <g>
    <line style="fill: none; fill-opacity:0; stroke-width: 2; stroke: #000000" x1="165" y1="541.002" x2="160.48" y2="570.379"/>
    <polygon style="fill: #000000" points="159.34,577.792 155.919,567.148 160.48,570.379 165.802,568.669 "/>
    <polygon style="fill: none; fill-opacity:0; stroke-width: 2; stroke: #000000" points="159.34,577.792 155.919,567.148 160.48,570.379 165.802,568.669 "/>
  </g>
  <g>
    <line style="fill: none; fill-opacity:0; stroke-width: 2; stroke: #000000" x1="294" y1="538.502" x2="168.306" y2="577.141"/>
    <polygon style="fill: #000000" points="161.137,579.345 169.227,571.627 168.306,577.141 172.165,581.186 "/>
    <polygon style="fill: none; fill-opacity:0; stroke-width: 2; stroke: #000000" points="161.137,579.345 169.227,571.627 168.306,577.141 172.165,581.186 "/>
  </g>
  <g>
    <line style="fill: none; fill-opacity:0; stroke-width: 2; stroke: #000000" x1="159" y1="619.002" x2="159.279" y2="631.268"/>
    <polygon style="fill: #000000" points="159.449,638.767 154.223,628.883 159.279,631.268 164.221,628.655 "/>
    <polygon style="fill: none; fill-opacity:0; stroke-width: 2; stroke: #000000" points="159.449,638.767 154.223,628.883 159.279,631.268 164.221,628.655 "/>
  </g>
  <g>
    <line style="fill: none; fill-opacity:0; stroke-width: 2; stroke: #000000" x1="159.5" y1="679.002" x2="159.18" y2="696.27"/>
    <polygon style="fill: #000000" points="159.041,703.768 154.227,693.677 159.18,696.27 164.226,693.863 "/>
    <polygon style="fill: none; fill-opacity:0; stroke-width: 2; stroke: #000000" points="159.041,703.768 154.227,693.677 159.18,696.27 164.226,693.863 "/>
  </g>
  <g>
    <path style="fill: none; fill-opacity:0; stroke-width: 2; stroke: #000000" d="M 96.2352,236.834 A 256.144,256.144 0 0 0 110.996,715.465"/>
    <polygon style="fill: #000000" points="103.194,234.048 95.5641,242.221 96.1642,236.663 92.078,232.848 "/>
    <polygon style="fill: none; fill-opacity:0; stroke-width: 2; stroke: #000000" points="103.194,234.048 95.5641,242.221 96.1642,236.663 92.078,232.848 "/>
  </g>
  <g>
    <polygon style="fill: #ffffff" points="222.002,239 317.002,239 307.502,260 317.002,281 222.002,281 "/>
    <polygon style="fill: none; fill-opacity:0; stroke-width: 2; stroke: #000000" points="222.002,239 317.002,239 307.502,260 317.002,281 222.002,281 "/>
    <text font-size="12.8" style="fill: #000000;text-anchor:middle;font-family:sans-serif;font-style:normal;font-weight:normal" x="269.502" y="264.8">
      <tspan x="269.502" y="264.8">ParkSign</tspan>
    </text>
  </g>
  <g>
    <polygon style="fill: #ffffff" points="223.002,302 308.502,302 318.002,323 308.502,344 223.002,344 "/>
    <polygon style="fill: none; fill-opacity:0; stroke-width: 2; stroke: #000000" points="223.002,302 308.502,302 318.002,323 308.502,344 223.002,344 "/>
    <text font-size="12.8" style="fill: #000000;text-anchor:middle;font-family:sans-serif;font-style:normal;font-weight:normal" x="270.502" y="327.8">
      <tspan x="270.502" y="327.8">ParkCar</tspan>
    </text>
  </g>
  <g>
    <path style="fill: #ffffff" d="M 234.043 374 L 300.961,374 C 309.325,381.6 312.002,385.4 312.002,393 C 312.002,400.6 309.325,404.4 300.961,412 L 234.043,412 C 225.679,404.4 223.002,400.6 223.002,393 C 223.002,385.4 225.679,381.6 234.043,374z"/>
    <path style="fill: none; fill-opacity:0; stroke-width: 2; stroke: #000000" d="M 234.043 374 L 300.961,374 C 309.325,381.6 312.002,385.4 312.002,393 C 312.002,400.6 309.325,404.4 300.961,412 L 234.043,412 C 225.679,404.4 223.002,400.6 223.002,393 C 223.002,385.4 225.679,381.6 234.043,374"/>
    <text font-size="12.8" style="fill: #000000;text-anchor:middle;font-family:sans-serif;font-style:normal;font-weight:normal" x="267.502" y="397.8">
      <tspan x="267.502" y="397.8">Park</tspan>
    </text>
  </g>
  <g>
    <line style="fill: none; fill-opacity:0; stroke-width: 2; stroke: #000000" x1="184.487" y1="222" x2="259.955" y2="237.091"/>
    <polygon style="fill: #000000" points="267.309,238.562 256.523,241.504 259.955,237.091 258.484,231.698 "/>
    <polygon style="fill: none; fill-opacity:0; stroke-width: 2; stroke: #000000" points="267.309,238.562 256.523,241.504 259.955,237.091 258.484,231.698 "/>
  </g>
  <g>
    <line style="fill: none; fill-opacity:0; stroke-width: 2; stroke: #000000" x1="269.502" y1="281" x2="270.039" y2="292.275"/>
    <polygon style="fill: #000000" points="270.396,299.766 264.926,290.016 270.039,292.275 274.914,289.54 "/>
    <polygon style="fill: none; fill-opacity:0; stroke-width: 2; stroke: #000000" points="270.396,299.766 264.926,290.016 270.039,292.275 274.914,289.54 "/>
  </g>
  <g>
    <line style="fill: none; fill-opacity:0; stroke-width: 2; stroke: #000000" x1="270.502" y1="344" x2="269.319" y2="363.328"/>
    <polygon style="fill: #000000" points="268.86,370.814 264.481,360.527 269.319,363.328 274.462,361.138 "/>
    <polygon style="fill: none; fill-opacity:0; stroke-width: 2; stroke: #000000" points="268.86,370.814 264.481,360.527 269.319,363.328 274.462,361.138 "/>
  </g>
  <g>
    <polygon style="fill: #ffffff" points="218,160 327,160 316.1,181 327,202 218,202 "/>
    <polygon style="fill: none; fill-opacity:0; stroke-width: 2; stroke: #000000" points="218,160 327,160 316.1,181 327,202 218,202 "/>
    <text font-size="12.7998" style="fill: #000000;text-anchor:middle;font-family:sans-serif;font-style:normal;font-weight:normal" x="272.5" y="186">
      <tspan x="272.5" y="186">StopSign</tspan>
    </text>
  </g>
  <g>
    <polygon style="fill: #ffffff" points="221,103 318.2,103 329,121.5 318.2,140 221,140 "/>
    <polygon style="fill: none; fill-opacity:0; stroke-width: 2; stroke: #000000" points="221,103 318.2,103 329,121.5 318.2,140 221,140 "/>
    <text font-size="12.7998" style="fill: #000000;text-anchor:middle;font-family:sans-serif;font-style:normal;font-weight:normal" x="275" y="126.5">
      <tspan x="275" y="126.5">StopMotor</tspan>
    </text>
  </g>
</svg>
